{
date = "2016-11-08 10:02:54 +0000";
familyName = "Mell Sans 3";
featurePrefixes = (
{
automatic = 1;
code = "languagesystem DFLT dflt;\012languagesystem cyrl dflt;\012languagesystem latn dflt;\012languagesystem latn CAT;\012languagesystem latn ROM;\012languagesystem latn MOL;\012languagesystem latn TRK;\012";
name = Languagesystems;
}
);
features = (
{
automatic = 1;
code = "feature locl;\012feature frac;\012";
name = aalt;
},
{
automatic = 1;
code = "script latn;\012language CAT;\012sub  l' periodcentered' l by ldot;\012sub  L' periodcentered' L by Ldot;\012language ROM;\012sub Scedilla by Scommaaccent;\012sub scedilla by scommaaccent;\012sub Tcedilla by Tcommaaccent;\012sub tcedilla by tcommaaccent;\012language MOL;\012sub Scedilla by Scommaaccent;\012sub scedilla by scommaaccent;\012sub Tcedilla by Tcommaaccent;\012sub tcedilla by tcommaaccent;\012language KAZ;\012sub i by idotaccent;\012language TAT;\012sub i by idotaccent;\012language TRK;\012sub i by idotaccent;\012language CRT;\012sub i by idotaccent;\012language AZE;\012sub i by idotaccent;\012";
name = locl;
},
{
automatic = 1;
code = "lookup FRAC {\012\011sub slash by fraction;\012} FRAC;\012lookup UP {\012\011sub [zero one two three four five six seven eight nine] by [zero.numr one.numr two.numr three.numr four.numr five.numr six.numr seven.numr eight.numr nine.numr];\012} UP;\012lookup DOWN {\012\011sub fraction [zero.numr one.numr two.numr three.numr four.numr five.numr six.numr seven.numr eight.numr nine.numr]' by [zero.dnom one.dnom two.dnom three.dnom four.dnom five.dnom six.dnom seven.dnom eight.dnom nine.dnom];\012\011sub [zero.dnom one.dnom two.dnom three.dnom four.dnom five.dnom six.dnom seven.dnom eight.dnom nine.dnom] [zero.numr one.numr two.numr three.numr four.numr five.numr six.numr seven.numr eight.numr nine.numr]' by [zero.dnom one.dnom two.dnom three.dnom four.dnom five.dnom six.dnom seven.dnom eight.dnom nine.dnom];\012} DOWN;\012";
name = frac;
}
);
fontMaster = (
{
ascender = 750;

glyphs = (
{
glyphname = B;
lastChange = "2021-07-05 08:47:26 +0000";
layers = (
{
background = {
paths = (
{
closed = 1;
nodes = (
"300 356 OFFCURVE",
"243 353 OFFCURVE",
"323 362 CURVE",
"377 379 OFFCURVE",
"413 421 OFFCURVE",
"413 508 CURVE SMOOTH",
"413 638 OFFCURVE",
"359 703 OFFCURVE",
"221 701 CURVE SMOOTH",
"151 700 LINE",
"151 700 OFFCURVE",
"148 356 OFFCURVE",
"148 356 CURVE SMOOTH"
);
},
{
closed = 1;
nodes = (
"202 619 LINE SMOOTH",
"290 619 OFFCURVE",
"326 586 OFFCURVE",
"326 513 CURVE SMOOTH",
"326 439 OFFCURVE",
"311 396 OFFCURVE",
"226 396 CURVE SMOOTH",
"131 396 LINE",
"131 619 LINE"
);
}
);
};
components = (
{
name = _I_small;
transform = "{1, 0, 0, 1, 40, 13}";
},
{
name = _I_small;
transform = "{1, 0, 0, 1, 40, 158}";
},
{
name = _I_small;
transform = "{1, 0, 0, 1, 40, 321}";
},
{
name = _I_small;
transform = "{1, 0, 0, 1, 40, 516}";
},
{
name = _curve_B;
transform = "{1, 0, 0, -1, 98, 711}";
},
{
name = _curve_B;
transform = "{1, 0, 0, 1, 58, -13}";
}
);
layerId = "7EBE3D46-E53E-419E-A3EC-596DA2EA1E0D";
name = Regular;
width = 600;
}
);
unicode = 0042;
},
{
glyphname = G;
lastChange = "2019-01-08 16:08:38 +0000";
layers = (
{
components = (
{
name = _C_curve;
transform = "{1, 0, 0, 1, 49, 24}";
},
{
name = "_dash-small";
transform = "{1, 0, 0, 1, 209, 50}";
},
{
name = _I_small;
transform = "{1, 0, 0, 1, 408, 107}";
},
{
name = "_dash-small";
transform = "{1, 0, 0, 1, 159, 50}";
},
{
name = _C_lowe;
transform = "{1, 0, 0, 1, 20, 18}";
}
);
layerId = "7EBE3D46-E53E-419E-A3EC-596DA2EA1E0D";
name = Regular;
paths = (
{
closed = 1;
nodes = (
"379 38 OFFCURVE",
"509 46 OFFCURVE",
"534 71 CURVE SMOOTH",
"551 88 LINE",
"365 92 LINE"
);
}
);
width = 611;
}
);
leftKerningGroup = O;
rightKerningGroup = O;
unicode = 0047;
},
{
glyphname = K;
lastChange = "2021-07-05 08:26:30 +0000";
layers = (
{
components = (
{
name = _I;
transform = "{1, 0, 0, 1, 30, 0}";
}
);
layerId = "7EBE3D46-E53E-419E-A3EC-596DA2EA1E0D";
name = Regular;
paths = (
{
closed = 1;
nodes = (
"546 700 LINE",
"393 700 LINE",
"202 439 LINE",
"204 266 LINE",
"393 2 LINE",
"546 2 LINE",
"290 356 LINE"
);
},
{
closed = 1;
nodes = (
"280 365 OFFCURVE",
"280 365 OFFCURVE",
"300 486 CURVE",
"230 486 OFFCURVE",
"170 426 OFFCURVE",
"170 354 CURVE SMOOTH",
"170 282 OFFCURVE",
"230 222 OFFCURVE",
"300 222 CURVE"
);
}
);
width = 555;
}
);
unicode = 004B;
},
{
glyphname = Q;
lastChange = "2021-07-01 01:27:53 +0000";
layers = (
{
components = (
{
name = O;
transform = "{1, 0, 0, 1, 0, 0}";
}
);
layerId = "7EBE3D46-E53E-419E-A3EC-596DA2EA1E0D";
name = Regular;
paths = (
{
closed = 1;
nodes = (
"452 -100 LINE",
"560 -43 LINE",
"407 253 LINE",
"322 202 LINE"
);
}
);
width = 676;
}
);
unicode = 0051;
},
{
glyphname = R;
lastChange = "2021-07-05 08:49:08 +0000";
layers = (
{
components = (
{
name = _I_small;
transform = "{1, 0, 0, 1, 40, 513}";
},
{
name = _I_small;
transform = "{1, 0, 0, 1, 40, 19}";
},
{
name = _I_small;
transform = "{1, 0, 0, 1, 40, 164}";
},
{
name = _I_small;
transform = "{1, 0, 0, 1, 40, 327}";
},
{
name = _I_small;
transform = "{1, 0, 0, 1, 40, 473}";
},
{
name = _curve_B;
transform = "{1, 0, 0, 1, 68, -16}";
}
);
layerId = "7EBE3D46-E53E-419E-A3EC-596DA2EA1E0D";
name = Regular;
paths = (
{
closed = 1;
nodes = (
"252 311 LINE",
"425 0 LINE",
"555 0 LINE",
"369 320 LINE"
);
},
{
closed = 1;
nodes = (
"252 291 OFFCURVE",
"264 287 OFFCURVE",
"292 239 CURVE SMOOTH",
"318 194 LINE",
"292 346 LINE",
"171 349 LINE",
"182 291 LINE"
);
}
);
width = 575;
}
);
unicode = 0052;
},
{
glyphname = S;
lastChange = "2021-07-05 08:40:22 +0000";
layers = (
{
components = (
{
name = "S-curve";
transform = "{1, 0, 0, 1, 0, 0}";
}
);
layerId = "7EBE3D46-E53E-419E-A3EC-596DA2EA1E0D";
name = Regular;
paths = (
{
closed = 1;
nodes = (
"189 437 OFFCURVE",
"158 455 OFFCURVE",
"158 503 CURVE SMOOTH",
"158 558 OFFCURVE",
"207 581 OFFCURVE",
"274 581 CURVE SMOOTH",
"337 581 OFFCURVE",
"397 571 OFFCURVE",
"426 555 CURVE",
"443 674 LINE",
"410 687 OFFCURVE",
"353 711 OFFCURVE",
"274 711 CURVE SMOOTH",
"125 711 OFFCURVE",
"44 634 OFFCURVE",
"44 514 CURVE SMOOTH",
"44 404 OFFCURVE",
"91 352 OFFCURVE",
"195 319 CURVE",
"304 282 LINE",
"365 260 OFFCURVE",
"391 246 OFFCURVE",
"391 190 CURVE SMOOTH",
"391 138 OFFCURVE",
"343 118 OFFCURVE",
"262 118 CURVE SMOOTH",
"208 118 OFFCURVE",
"131 125 OFFCURVE",
"68 174 CURVE",
"37 58 LINE",
"100 7 OFFCURVE",
"176 -10 OFFCURVE",
"263 -10 CURVE SMOOTH",
"419 -10 OFFCURVE",
"507 73 OFFCURVE",
"507 193 CURVE SMOOTH",
"507 285 OFFCURVE",
"459 349 OFFCURVE",
"348 386 CURVE",
"258 415 LINE"
);
}
);
width = 540;
}
);
unicode = 0053;
},
{
glyphname = Y;
lastChange = "2019-01-08 16:15:28 +0000";
layers = (
{
layerId = "7EBE3D46-E53E-419E-A3EC-596DA2EA1E0D";
name = Regular;
paths = (
{
closed = 1;
nodes = (
"631 700 LINE",
"488 700 LINE",
"312 408 LINE",
"151 700 LINE",
"10 700 LINE",
"254 284 LINE",
"254 0 LINE",
"367 0 LINE",
"367 284 LINE"
);
}
);
width = 641;
}
);
leftKerningGroup = T;
rightKerningGroup = T;
unicode = 0059;
},
{
glyphname = a;
lastChange = "2021-07-05 07:38:49 +0000";
layers = (
{
components = (
{
name = _I_small;
transform = "{1, 0, 0, 1, 300, 57}";
},
{
name = _I_small;
transform = "{1, 0, 0, 1, 300, 97}";
},
{
name = _c;
transform = "{-1, -0, 0, 1, 498, -172}";
}
);
layerId = "7EBE3D46-E53E-419E-A3EC-596DA2EA1E0D";
name = Regular;
paths = (
{
closed = 1;
nodes = (
"330 0 LINE",
"443 0 LINE",
"442 152 LINE",
"330 209 LINE"
);
},
{
closed = 1;
nodes = (
"330 213 OFFCURVE",
"443 172 OFFCURVE",
"443 285 CURVE",
"443 450 OFFCURVE",
"367 513 OFFCURVE",
"228 513 CURVE",
"170 513 OFFCURVE",
"191 383 OFFCURVE",
"228 383 CURVE",
"298 383 OFFCURVE",
"330 360 OFFCURVE",
"330 287 CURVE"
);
},
{
closed = 1;
nodes = (
"82 296 OFFCURVE",
"38 222 OFFCURVE",
"39 144 CURVE SMOOTH",
"40 39 OFFCURVE",
"99 -11 OFFCURVE",
"202 -11 CURVE SMOOTH",
"302 -11 OFFCURVE",
"364 81 OFFCURVE",
"400 112 CURVE",
"353 170 LINE",
"305 135 OFFCURVE",
"273 111 OFFCURVE",
"220 111 CURVE SMOOTH",
"172 111 OFFCURVE",
"150 123 OFFCURVE",
"150 157 CURVE SMOOTH",
"150 215 OFFCURVE",
"202 215 OFFCURVE",
"364 219 CURVE",
"404 230 OFFCURVE",
"383 308 OFFCURVE",
"349 307 CURVE SMOOTH",
"222 302 LINE SMOOTH"
);
}
);
width = 505;
}
);
leftKerningGroup = e;
rightKerningGroup = e;
unicode = 0061;
},
{
glyphname = d;
lastChange = "2017-02-27 18:23:26 +0000";
layers = (
{
components = (
{
name = _I_small;
transform = "{1, 0, 0, 1, 340, 98}";
},
{
name = _I_small;
transform = "{1, 0, 0, 1, 340, 426}";
},
{
name = _I_small;
transform = "{1, 0, 0, 1, 340, 563}";
},
{
name = _I_small;
transform = "{1, 0, 0, 1, 340, 533}";
},
{
name = _I_small;
transform = "{1, 0, 0, 1, 340, 165}";
},
{
name = _I_small;
transform = "{1, 0, 0, 1, 340, 328}";
},
{
name = _I_small;
transform = "{1, 0, 0, 1, 340, 474}";
},
{
name = _curve_b;
transform = "{-1, 0, 0, -1, 511, 500}";
}
);
layerId = "7EBE3D46-E53E-419E-A3EC-596DA2EA1E0D";
name = Regular;
paths = (
{
closed = 1;
nodes = (
"370 451 LINE",
"370 244 LINE",
"483 244 LINE",
"483 451 LINE"
);
},
{
closed = 1;
nodes = (
"370 208 LINE",
"370 1 LINE",
"483 1 LINE",
"483 208 LINE"
);
}
);
width = 543;
}
);
leftKerningGroup = e;
rightKerningGroup = h;
unicode = 0064;
},
{
glyphname = eth;
lastChange = "2017-02-21 06:29:50 +0000";
layers = (
{
components = (
{
name = six;
transform = "{-1, 0, 0, 1, 558, 0}";
}
);
layerId = "7EBE3D46-E53E-419E-A3EC-596DA2EA1E0D";
name = Regular;
paths = (
{
closed = 1;
nodes = (
"482.282 739.118 LINE",
"348.728 764.242 LINE",
"111.761 499.532 LINE",
"256.395 479.809 LINE"
);
}
);
width = 558;
}
);
unicode = 00F0;
},
{
glyphname = e;
lastChange = "2021-07-05 07:33:06 +0000";
layers = (
{
components = (
{
name = _o_curve;
transform = "{1, 0, 0, 1, 6, 0}";
},
{
name = _o_curve;
transform = "{-1, 0, 0, 1, 495, 0}";
},
{
name = _curve_cursive;
transform = "{1, 0, 0, 1, -10, -3}";
}
);
layerId = "7EBE3D46-E53E-419E-A3EC-596DA2EA1E0D";
name = Regular;
paths = (
{
closed = 1;
nodes = (
"463 232 OFFCURVE",
"461 263 OFFCURVE",
"459 282 CURVE",
"390 292 LINE",
"118 292 LINE",
"118 212 LINE",
"459 212 LINE"
);
}
);
width = 501;
}
);
leftKerningGroup = e;
rightKerningGroup = e;
unicode = 0065;
},
{
glyphname = g;
lastChange = "2021-07-04 14:54:03 +0000";
layers = (
{
layerId = "7EBE3D46-E53E-419E-A3EC-596DA2EA1E0D";
name = Regular;
paths = (
{
closed = 1;
nodes = (
"485 381 LINE",
"483 500 LINE",
"261 500 LINE",
"215 500 OFFCURVE",
"255 448 OFFCURVE",
"277 399 CURVE"
);
},
{
closed = 1;
nodes = (
"396 -211 OFFCURVE",
"487 -162 OFFCURVE",
"487 -50 CURVE",
"487 61 OFFCURVE",
"421 120 OFFCURVE",
"282 120 CURVE",
"176 120 OFFCURVE",
"166 132 OFFCURVE",
"185 157 CURVE",
"190 188 LINE",
"124 213 LINE",
"71 172 OFFCURVE",
"57 70 OFFCURVE",
"136 36 CURVE",
"136 68 LINE",
"101 60 OFFCURVE",
"35 21 OFFCURVE",
"35 -57 CURVE",
"36 -135 OFFCURVE",
"56 -211 OFFCURVE",
"239 -211 CURVE",
"284 -211 LINE"
);
},
{
closed = 1;
nodes = (
"260 -101 LINE",
"178 -101 OFFCURVE",
"149 -90 OFFCURVE",
"148 -50 CURVE",
"149 -7 OFFCURVE",
"182 0 OFFCURVE",
"260 0 CURVE",
"263 0 LINE",
"339 0 OFFCURVE",
"373 -9 OFFCURVE",
"374 -49 CURVE",
"373 -93 OFFCURVE",
"345 -101 OFFCURVE",
"263 -101 CURVE"
);
},
{
closed = 1;
nodes = (
"469 419 OFFCURVE",
"345 438 OFFCURVE",
"272 440 CURVE",
"273 500 LINE",
"253 500 LINE",
"112 500 OFFCURVE",
"49 422 OFFCURVE",
"49 316 CURVE",
"49 315 LINE",
"53 211 OFFCURVE",
"122 145 OFFCURVE",
"253 145 CURVE",
"257 145 LINE",
"259 145 OFFCURVE",
"260 145 OFFCURVE",
"262 145 CURVE",
"266 145 LINE",
"397 145 OFFCURVE",
"469 209 OFFCURVE",
"469 317 CURVE"
);
},
{
closed = 1;
nodes = (
"260 235 LINE",
"260 235 OFFCURVE",
"260 235 OFFCURVE",
"260 235 CURVE",
"254 235 LINE",
"179 235 OFFCURVE",
"162 255 OFFCURVE",
"162 311 CURVE",
"162 367 OFFCURVE",
"179 389 OFFCURVE",
"254 389 CURVE",
"260 389 LINE",
"260 389 OFFCURVE",
"260 389 OFFCURVE",
"260 389 CURVE",
"265 389 LINE",
"340 389 OFFCURVE",
"356 367 OFFCURVE",
"356 311 CURVE",
"356 255 OFFCURVE",
"340 235 OFFCURVE",
"265 235 CURVE"
);
}
);
width = 522;
}
);
leftKerningGroup = e;
unicode = 0067;
},
{
glyphname = k;
lastChange = "2021-07-01 01:21:22 +0000";
layers = (
{
components = (
{
name = _I_dbh;
transform = "{1, 0, 0, 1, 30, 0}";
}
);
layerId = "7EBE3D46-E53E-419E-A3EC-596DA2EA1E0D";
name = Regular;
paths = (
{
closed = 1;
nodes = (
"458 500 LINE",
"325 500 LINE",
"194 317 LINE",
"193 192 LINE",
"325 0 LINE",
"458 0 LINE",
"279 256 LINE"
);
},
{
closed = 1;
nodes = (
"269 262 OFFCURVE",
"269 262 OFFCURVE",
"269 353 CURVE",
"216 353 OFFCURVE",
"171 308 OFFCURVE",
"171 254 CURVE SMOOTH",
"171 200 OFFCURVE",
"216 155 OFFCURVE",
"269 155 CURVE"
);
}
);
width = 505;
}
);
leftKerningGroup = h;
rightKerningGroup = v;
unicode = 006B;
},
{
glyphname = r;
lastChange = "2021-07-05 09:30:29 +0000";
layers = (
{
components = (
{
name = "_i-dotless";
transform = "{1, 0, 0, 1, 3, 0}";
}
);
layerId = "7EBE3D46-E53E-419E-A3EC-596DA2EA1E0D";
name = Regular;
paths = (
{
closed = 1;
nodes = (
"383 494 LINE",
"358 503 OFFCURVE",
"335 506 OFFCURVE",
"311 506 CURVE",
"238 506 OFFCURVE",
"170 446 OFFCURVE",
"159 376 CURVE",
"109 264 LINE",
"173 101 LINE",
"173 359 OFFCURVE",
"270 386 OFFCURVE",
"363 364 CURVE"
);
}
);
width = 413;
}
);
leftKerningGroup = n;
rightKerningGroup = f;
unicode = 0072;
},
{
glyphname = s;
lastChange = "2021-07-05 08:39:30 +0000";
layers = (
{
background = {
paths = (
{
closed = 1;
nodes = (
"155 82 OFFCURVE",
"121 101 OFFCURVE",
"82 136 CURVE",
"40 58 LINE",
"78 22 OFFCURVE",
"119 -7 OFFCURVE",
"211 -7 CURVE SMOOTH",
"323 -7 OFFCURVE",
"394 52 OFFCURVE",
"394 139 CURVE SMOOTH",
"394 231 OFFCURVE",
"329 267 OFFCURVE",
"226 297 CURVE SMOOTH",
"172 313 OFFCURVE",
"143 329 OFFCURVE",
"143 367 CURVE SMOOTH",
"143 405 OFFCURVE",
"177 416 OFFCURVE",
"217 416 CURVE SMOOTH",
"259 416 OFFCURVE",
"283 506 OFFCURVE",
"214 506 CURVE SMOOTH",
"116 506 OFFCURVE",
"46 458 OFFCURVE",
"46 376 CURVE SMOOTH",
"46 257 OFFCURVE",
"148 233 OFFCURVE",
"220 212 CURVE SMOOTH",
"280 194 OFFCURVE",
"303 176 OFFCURVE",
"303 143 CURVE SMOOTH",
"303 98 OFFCURVE",
"252 82 OFFCURVE",
"208 82 CURVE SMOOTH"
);
}
);
};
components = (
{
name = _c;
transform = "{1, 0, 0, 1, -58, -168}";
}
);
layerId = "7EBE3D46-E53E-419E-A3EC-596DA2EA1E0D";
name = Regular;
paths = (
{
closed = 1;
nodes = (
"204 307 LINE SMOOTH",
"180 315 OFFCURVE",
"158 327 OFFCURVE",
"158 350 CURVE SMOOTH",
"158 374 OFFCURVE",
"176 387 OFFCURVE",
"213 387 CURVE",
"259 388 OFFCURVE",
"271 519 OFFCURVE",
"207 517 CURVE SMOOTH",
"128 517 OFFCURVE",
"46 461.595 OFFCURVE",
"46 366 CURVE SMOOTH",
"46 289 OFFCURVE",
"104 240 OFFCURVE",
"178 220 CURVE",
"229 204 LINE SMOOTH",
"253 196 OFFCURVE",
"283 188 OFFCURVE",
"283 146 CURVE SMOOTH",
"283 103 OFFCURVE",
"241 101 OFFCURVE",
"213 101 CURVE SMOOTH",
"180 101 OFFCURVE",
"128 104 OFFCURVE",
"80 139 CURVE",
"33 43 LINE",
"69 12 OFFCURVE",
"131 -17 OFFCURVE",
"221 -17 CURVE SMOOTH",
"314 -17 OFFCURVE",
"394 50 OFFCURVE",
"394 135 CURVE SMOOTH",
"394 223 OFFCURVE",
"339 263 OFFCURVE",
"271 285 CURVE SMOOTH"
);
}
);
width = 433;
}
);
leftKerningGroup = e;
rightKerningGroup = e;
unicode = 0073;
},
{
glyphname = germandbls;
lastChange = "2017-02-21 06:29:50 +0000";
layers = (
{
layerId = "7EBE3D46-E53E-419E-A3EC-596DA2EA1E0D";
name = Regular;
paths = (
{
closed = 1;
nodes = (
"537 281.539 OFFCURVE",
"359 320.346 OFFCURVE",
"359 374 CURVE",
"359 424.157 OFFCURVE",
"491 434.151 OFFCURVE",
"491 571 CURVE",
"491 670.439 OFFCURVE",
"426.134 733 OFFCURVE",
"293 733 CURVE",
"162.391 733 OFFCURVE",
"60 659.234 OFFCURVE",
"60 504 CURVE",
"60 -20 LINE",
"178 -20 LINE",
"178 485 LINE",
"178 522.754 OFFCURVE",
"179.355 539.01 OFFCURVE",
"184.575 547.71 CURVE",
"184.742 548.287 LINE",
"187.033 552.412 OFFCURVE",
"193.454 561.241 OFFCURVE",
"206.071 573.858 CURVE",
"220.438 589.071 OFFCURVE",
"251.197 600 OFFCURVE",
"285 600 CURVE",
"346.708 600 OFFCURVE",
"373.549 585.782 OFFCURVE",
"373.003 564.513 CURVE",
"373 564 LINE",
"373 505.988 OFFCURVE",
"242 500.894 OFFCURVE",
"242 370 CURVE",
"242 292.69 OFFCURVE",
"293.65 249.256 OFFCURVE",
"334.118 219.825 CURVE",
"369.389 194.726 OFFCURVE",
"394.652 179.917 OFFCURVE",
"404.753 155.385 CURVE",
"404.586 156.255 LINE",
"421.656 108.602 OFFCURVE",
"396.908 102.083 OFFCURVE",
"325.566 98.9811 CURVE",
"300.004 99 OFFCURVE",
"267.241 102.971 OFFCURVE",
"255.008 108.323 CURVE",
"241 90 LINE",
"241 -18.2696 LINE",
"256.927 -21.189 OFFCURVE",
"299.159 -28 OFFCURVE",
"340 -28 CURVE",
"483.546 -28 OFFCURVE",
"537 57.6216 OFFCURVE",
"537 139 CURVE"
);
}
);
width = 597;
}
);
leftKerningGroup = h;
rightKerningGroup = c;
unicode = 00DF;
},
{
glyphname = t;
lastChange = "2021-07-01 01:42:35 +0000";
layers = (
{
components = (
{
name = _curve_lower;
transform = "{1, 0, 0, 1, 35, 1}";
},
{
name = ball;
transform = "{1, 0, 0, 1, -141, 146}";
},
{
name = ball;
transform = "{1, 0, 0, 1, -288, -50}";
}
);
hints = (
{
horizontal = 1;
place = "{420.000000, 80.000000}";
}
);
layerId = "7EBE3D46-E53E-419E-A3EC-596DA2EA1E0D";
name = Regular;
paths = (
{
closed = 1;
nodes = (
"23 453 LINE",
"57 380 LINE",
"128 380 LINE",
"128 202 LINE",
"128 42 OFFCURVE",
"241 100 OFFCURVE",
"241 202 CURVE",
"241 380 LINE",
"398 380 LINE",
"398 500 LINE",
"241 500 LINE",
"241 610 LINE",
"162 638 LINE"
);
}
);
width = 488;
}
);
leftKerningGroup = c;
rightKerningGroup = c;
unicode = 0074;
},
{
glyphname = y;
lastChange = "2021-07-05 07:14:56 +0000";
layers = (
{
layerId = "7EBE3D46-E53E-419E-A3EC-596DA2EA1E0D";
name = Regular;
paths = (
{
closed = 1;
nodes = (
"354 500 LINE",
"254 210 LINE",
"147 500 LINE",
"15 500 LINE",
"196 24 LINE",
"161 -49 LINE SMOOTH",
"146 -79 OFFCURVE",
"105 -89 OFFCURVE",
"63 -75 CURVE",
"72 -200 LINE",
"149 -212 OFFCURVE",
"238 -196 OFFCURVE",
"280 -73 CURVE SMOOTH",
"478 500 LINE"
);
}
);
width = 501;
}
);
leftKerningGroup = v;
rightKerningGroup = v;
unicode = 0079;
},
{
glyphname = y.001;
lastChange = "2019-01-10 16:13:08 +0000";
layers = (
{
layerId = "7EBE3D46-E53E-419E-A3EC-596DA2EA1E0D";
name = Regular;
paths = (
{
closed = 1;
nodes = (
"15 500 LINE",
"178 0 LINE",
"248 0 LINE",
"274.301 124.841 LINE",
"247.954 123.291 LINE",
"140 500 LINE"
);
},
{
closed = 1;
nodes = (
"462 500 LINE",
"337 500 LINE",
"188.42 -42.2659 LINE",
"171.713 -98.5616 OFFCURVE",
"131.453 -103.266 OFFCURVE",
"88.3694 -82.5706 CURVE",
"101.674 -218.575 LINE",
"183.831 -234.481 OFFCURVE",
"249.468 -191.619 OFFCURVE",
"279.51 -99.1817 CURVE"
);
}
);
width = 478;
}
);
leftKerningGroup = v;
rightKerningGroup = v;
},
{
glyphname = "De-cy";
lastChange = "2021-07-05 12:03:18 +0000";
layers = (
{
components = (
{
name = _I_small;
transform = "{1, 0, 0, 1, 97, 328}";
},
{
name = _I_small;
transform = "{1, 0, 0, 1, 97, 474}";
},
{
name = _I;
transform = "{1, 0, 0, 1, 417, 0}";
},
{
name = _EF_horizontal;
transform = "{1, 0, 0, 1, -112, -293}";
},
{
name = _EF_horizontal;
transform = "{1, 0, 0, 1, 3, 288}";
},
{
name = _EF_horizontal;
transform = "{1, 0, 0, 1, 140, 288}";
},
{
name = _EF_horizontal;
transform = "{1, 0, 0, 1, 106, -293}";
},
{
name = _D_cyr;
transform = "{-1, 0, 0, 1, 672, 19}";
},
{
name = _D_cyr;
transform = "{1, 0, 0, 1, -43, 19}";
}
);
layerId = "7EBE3D46-E53E-419E-A3EC-596DA2EA1E0D";
name = Regular;
paths = (
{
closed = 1;
nodes = (
"21 59 LINE",
"34 55 OFFCURVE",
"72 68 OFFCURVE",
"74 68 CURVE",
"131 68 OFFCURVE",
"240 59 OFFCURVE",
"240 206 CURVE",
"240 395 LINE",
"127 395 LINE",
"127 198 LINE",
"127 151 OFFCURVE",
"97 118 OFFCURVE",
"8 121 CURVE",
"14 75 LINE"
);
}
);
width = 629;
}
);
unicode = 0414;
},
{
glyphname = "be-cy";
lastChange = "2019-01-10 16:16:48 +0000";
layers = (
{
components = (
{
name = _o_curve;
transform = "{-1, -0, 0, -1, 532, 495}";
},
{
name = _o_curve;
transform = "{1, 0, 0, -1, 26, 495}";
},
{
name = _o_curve;
transform = "{-1, 0, 0, 1, 532, 0}";
}
);
layerId = "7EBE3D46-E53E-419E-A3EC-596DA2EA1E0D";
name = Regular;
paths = (
{
closed = 1;
nodes = (
"181.961 404.232 LINE",
"192.003 513.657 OFFCURVE",
"196.744 636.638 OFFCURVE",
"472.12 590.439 CURVE",
"442.344 716.988 LINE",
"110.66 771.298 OFFCURVE",
"61 557.476 OFFCURVE",
"61 355 CURVE",
"61 328.224 OFFCURVE",
"60 261.224 OFFCURVE",
"60 242 CURVE",
"69.4262 222.033 LINE",
"165.3 216.523 LINE"
);
},
{
closed = 1;
nodes = (
"291 406 LINE",
"283 516 LINE",
"195 516 OFFCURVE",
"121 426 OFFCURVE",
"121 277 CURVE",
"121 230 OFFCURVE",
"173 173 OFFCURVE",
"173 270 CURVE",
"173 338 OFFCURVE",
"200 396 OFFCURVE",
"275 396 CURVE",
"277 396 OFFCURVE",
"279 396 OFFCURVE",
"281 396 CURVE"
);
}
);
width = 558;
}
);
leftKerningGroup = e;
rightKerningGroup = e;
unicode = 0431;
},
{
glyphname = "che-cy";
lastChange = "2021-07-05 12:12:33 +0000";
layers = (
{
components = (
{
name = _I_small;
transform = "{1, 0, 0, 1, 325, 20}";
},
{
name = _I_small;
transform = "{1, 0, 0, 1, 325, 165}";
},
{
name = _I_small;
transform = "{1, 0, 0, 1, 325, 309}";
},
{
name = _I_small;
transform = "{1, 0, 0, 1, 30, 312}";
}
);
layerId = "7EBE3D46-E53E-419E-A3EC-596DA2EA1E0D";
name = Regular;
paths = (
{
closed = 1;
nodes = (
"173 437 OFFCURVE",
"60 429 OFFCURVE",
"60 315 CURVE",
"60 190 OFFCURVE",
"128 132 OFFCURVE",
"270 142 CURVE",
"432 154 LINE",
"410 275 LINE",
"287 264 LINE",
"202 256 OFFCURVE",
"173 291 OFFCURVE",
"173 346 CURVE"
);
}
);
width = 528;
}
);
leftKerningGroup = e;
rightKerningGroup = n;
unicode = 0447;
},
{
glyphname = "ia-cy";
lastChange = "2021-07-05 12:11:55 +0000";
layers = (
{
components = (
{
name = "_i-dotless";
transform = "{1, 0, 0, 1, 269, 0}";
},
{
name = _ya_cyr;
transform = "{1, 0, 0, 1, -30, -150}";
}
);
layerId = "7EBE3D46-E53E-419E-A3EC-596DA2EA1E0D";
name = Regular;
paths = (
{
closed = 1;
nodes = (
"233.619 100.86 LINE",
"259.418 145.481 OFFCURVE",
"305.059 135.121 OFFCURVE",
"337.587 137.035 CURVE",
"346.099 137.758 OFFCURVE",
"409.692 193.574 OFFCURVE",
"348.499 209.366 CURVE",
"334.018 213.005 OFFCURVE",
"202.931 194.991 OFFCURVE",
"198.997 194.997 CURVE",
"127 188 OFFCURVE",
"115 131 OFFCURVE",
"69 43 CURVE",
"50 0 LINE",
"182 0 LINE"
);
}
);
width = 499;
}
);
leftKerningGroup = e;
rightKerningGroup = n;
unicode = 044F;
},
{
glyphname = zero;
lastChange = "2021-07-05 09:25:43 +0000";
layers = (
{
components = (
{
name = _o_curve;
transform = "{-1, -0, 0, -1, 552, 505}";
},
{
name = _o_curve;
transform = "{1, 0, 0, -1, 36, 505}";
},
{
name = _o_curve;
transform = "{-1, 0, 0, 1, 552, 190}";
},
{
name = _o_curve;
transform = "{1, 0, 0, 1, 36, 190}";
},
{
name = _I_small;
transform = "{1, 0, 0, 1, 40, 264}";
},
{
name = _I_small;
transform = "{1, 0, 0, 1, 375, 263}";
}
);
layerId = "7EBE3D46-E53E-419E-A3EC-596DA2EA1E0D";
name = Regular;
paths = (
{
closed = 1;
nodes = (
"286 -11 LINE",
"301 -11 LINE",
"301 109 LINE",
"286 109 LINE"
);
},
{
closed = 1;
nodes = (
"286 586 LINE",
"301 586 LINE",
"301 706 LINE",
"286 706 LINE"
);
}
);
width = 588;
}
);
unicode = 0030;
},
{
glyphname = one;
lastChange = "2021-07-05 09:27:29 +0000";
layers = (
{
components = (
{
name = _I_small;
transform = "{1, 0, 0, 1, 119, 19}";
},
{
name = _I_small;
transform = "{1, 0, 0, 1, 119, 168}";
},
{
name = _I_small;
transform = "{1, 0, 0, 1, 119, 331}";
},
{
name = _I_small;
transform = "{1, 0, 0, 1, 119, 477}";
},
{
name = ball;
transform = "{1, 0, 0, 1, -121, 203}";
}
);
layerId = "7EBE3D46-E53E-419E-A3EC-596DA2EA1E0D";
name = Regular;
paths = (
{
closed = 1;
nodes = (
"60 547 LINE",
"262 594 LINE",
"262 670 LINE",
"207 716 LINE",
"40 668 LINE"
);
}
);
width = 332;
}
);
unicode = 0031;
},
{
glyphname = two;
lastChange = "2021-07-05 12:19:52 +0000";
layers = (
{
components = (
{
name = _EF_horizontal;
transform = "{-1, -0, 0, -1, 463, 413}";
},
{
name = _EF_horizontal;
transform = "{-1, -0, 0, -1, 586, 413}";
},
{
name = ball;
transform = "{-1, 0, 0, 1, 417, -430}";
}
);
layerId = "7EBE3D46-E53E-419E-A3EC-596DA2EA1E0D";
name = Regular;
paths = (
{
closed = 1;
nodes = (
"39 61 CURVE",
"77 0 LINE",
"134 0 LINE",
"244 122 OFFCURVE",
"455 270 OFFCURVE",
"455 478 CURVE",
"455 615 OFFCURVE",
"377 716 OFFCURVE",
"231 716 CURVE",
"183 716 OFFCURVE",
"103 716 OFFCURVE",
"44 672 CURVE",
"69 548 LINE",
"108 568 OFFCURVE",
"169 582 OFFCURVE",
"230 582 CURVE",
"313 582 OFFCURVE",
"333 527 OFFCURVE",
"333 480 CURVE",
"333 312 OFFCURVE",
"155 190 OFFCURVE"
);
}
);
width = 522;
}
);
unicode = 0032;
},
{
glyphname = five;
lastChange = "2021-07-05 09:47:10 +0000";
layers = (
{
components = (
{
name = _I_small;
transform = "{1, 0, 0, 1, 54, 425}";
},
{
name = _I_small;
transform = "{1, 0, 0, 1, 54, 512}";
},
{
name = _EF_horizontal;
transform = "{1, 0, 0, 1, 112, 287}";
},
{
name = ball;
transform = "{1, 0, 0, 1, -214, -73}";
},
{
name = _EF_horizontal;
transform = "{1, 0, 0, 1, 42, 287}";
}
);
layerId = "7EBE3D46-E53E-419E-A3EC-596DA2EA1E0D";
name = Regular;
paths = (
{
closed = 1;
nodes = (
"381 227 LINE",
"381 77 OFFCURVE",
"495 68 OFFCURVE",
"495 252 CURVE",
"495 387 OFFCURVE",
"408 481 OFFCURVE",
"269 481 CURVE",
"178 481 OFFCURVE",
"146 466 OFFCURVE",
"114 450 CURVE",
"84 396 LINE",
"135 358 LINE",
"135 358 OFFCURVE",
"182 376 OFFCURVE",
"258 376 CURVE",
"326 376 OFFCURVE",
"381 333 OFFCURVE",
"381 254 CURVE"
);
},
{
closed = 1;
nodes = (
"495 341 OFFCURVE",
"381 365 OFFCURVE",
"381 257 CURVE",
"381 254 LINE",
"381 168 OFFCURVE",
"345 121 OFFCURVE",
"259 121 CURVE",
"190 121 OFFCURVE",
"134 133 OFFCURVE",
"91 166 CURVE",
"60 49 LINE",
"114 11 OFFCURVE",
"177 -8 OFFCURVE",
"259 -9 CURVE",
"405 -9 OFFCURVE",
"495 86 OFFCURVE",
"495 235 CURVE",
"495 257 LINE"
);
}
);
width = 545;
}
);
unicode = 0035;
},
{
glyphname = six;
lastChange = "2021-07-05 09:26:55 +0000";
layers = (
{
components = (
{
name = _o_curve;
transform = "{-1, -0, 0, -1, 552, 495}";
},
{
name = _o_curve;
transform = "{1, 0, 0, -1, 36, 495}";
},
{
name = "five-glyph";
transform = "{-1, 0, -0, -1, 527, 699}";
},
{
name = _I_small;
transform = "{1, 0, 0, 1, 40, 265}";
}
);
layerId = "7EBE3D46-E53E-419E-A3EC-596DA2EA1E0D";
name = Regular;
paths = (
{
closed = 1;
nodes = (
"315 371 LINE",
"305 481 LINE",
"186 481 OFFCURVE",
"131 370 OFFCURVE",
"131 222 CURVE",
"131 175 OFFCURVE",
"183 138 OFFCURVE",
"183 235 CURVE",
"183 322 OFFCURVE",
"211 371 OFFCURVE",
"286 371 CURVE"
);
},
{
closed = 1;
nodes = (
"298 371 LINE",
"300 371 OFFCURVE",
"302 371 OFFCURVE",
"304 371 CURVE",
"369 371 OFFCURVE",
"405 330 OFFCURVE",
"405 233 CURVE",
"405 203 OFFCURVE",
"518 218 OFFCURVE",
"518 248 CURVE",
"516 371 OFFCURVE",
"450 481 OFFCURVE",
"305 481 CURVE",
"295 461 LINE",
"292 381 LINE"
);
},
{
closed = 1;
nodes = (
"286 -21 LINE",
"301 -21 LINE",
"301 99 LINE",
"286 99 LINE"
);
}
);
width = 588;
}
);
unicode = 0036;
},
{
glyphname = eight;
lastChange = "2021-07-05 09:28:19 +0000";
layers = (
{
layerId = "7EBE3D46-E53E-419E-A3EC-596DA2EA1E0D";
name = Regular;
paths = (
{
closed = 1;
nodes = (
"70 473 OFFCURVE",
"89 412 OFFCURVE",
"125 363 CURVE",
"85 327 OFFCURVE",
"60 268 OFFCURVE",
"60 189 CURVE",
"60 63 OFFCURVE",
"138 -22 OFFCURVE",
"289 -22 CURVE",
"432 -22 OFFCURVE",
"520 71 OFFCURVE",
"520 189 CURVE",
"520 272 OFFCURVE",
"482 334 OFFCURVE",
"434 368 CURVE",
"480 402 OFFCURVE",
"510 467 OFFCURVE",
"510 515 CURVE",
"510 658 OFFCURVE",
"417 719 OFFCURVE",
"289 719 CURVE",
"151 719 OFFCURVE",
"70 657 OFFCURVE",
"70 515 CURVE"
);
},
{
closed = 1;
nodes = (
"176 287 OFFCURVE",
"223 316 OFFCURVE",
"290 316 CURVE",
"354 316 OFFCURVE",
"402 284 OFFCURVE",
"402 211 CURVE",
"402 145 OFFCURVE",
"377 102 OFFCURVE",
"290 102 CURVE",
"198 102 OFFCURVE",
"176 145 OFFCURVE",
"176 203 CURVE"
);
},
{
closed = 1;
nodes = (
"186 556 OFFCURVE",
"216 588 OFFCURVE",
"290 588 CURVE",
"363 588 OFFCURVE",
"392 555 OFFCURVE",
"392 512 CURVE",
"392 505 LINE",
"392 447 OFFCURVE",
"355 414 OFFCURVE",
"290 414 CURVE",
"289 414 LINE",
"222 414 OFFCURVE",
"186 445 OFFCURVE",
"186 505 CURVE"
);
}
);
width = 580;
}
);
unicode = 0038;
},
{
glyphname = asterisk;
lastChange = "2017-02-21 06:29:50 +0000";
layers = (
{
layerId = "7EBE3D46-E53E-419E-A3EC-596DA2EA1E0D";
name = Regular;
paths = (
{
closed = 1;
nodes = (
"296.449 532.289 LINE",
"368.549 572.794 LINE",
"322.076 654.523 LINE",
"245 607.371 LINE",
"245 703 LINE",
"168 703 LINE",
"168 605.728 LINE",
"91.3823 654.983 LINE",
"52.0358 573.011 LINE",
"122.455 533 LINE",
"50.8044 492.289 LINE",
"94.7908 412.462 LINE",
"173 458.842 LINE",
"173 363 LINE",
"250 363 LINE",
"250 458.763 LINE",
"327.838 412.061 LINE",
"365.753 494.486 LINE"
);
}
);
width = 419;
}
);
unicode = 002A;
},
{
glyphname = bullet;
lastChange = "2017-02-21 06:29:50 +0000";
layers = (
{
layerId = "7EBE3D46-E53E-419E-A3EC-596DA2EA1E0D";
name = Regular;
paths = (
{
closed = 1;
nodes = (
"301.072 170 OFFCURVE",
"375 239.379 OFFCURVE",
"375 326 CURVE",
"375 414.621 OFFCURVE",
"301.072 484 OFFCURVE",
"218 484 CURVE",
"135.992 484 OFFCURVE",
"60 414.814 OFFCURVE",
"60 326 CURVE",
"60 239.186 OFFCURVE",
"135.992 170 OFFCURVE",
"218 170 CURVE"
);
}
);
width = 435;
}
);
unicode = 2022;
},
{
glyphname = numbersign;
lastChange = "2017-02-21 06:29:50 +0000";
layers = (
{
layerId = "7EBE3D46-E53E-419E-A3EC-596DA2EA1E0D";
name = Regular;
paths = (
{
closed = 1;
nodes = (
"616.157 307 LINE",
"514.191 307 LINE",
"527.119 434 LINE",
"635.55 434 LINE",
"645.627 565 LINE",
"541.075 565 LINE",
"556.075 720 LINE",
"445.684 720 LINE",
"431.684 565 LINE",
"324.075 565 LINE",
"339.075 720 LINE",
"229.684 720 LINE",
"215.684 565 LINE",
"95.4499 565 LINE",
"85.373 434 LINE",
"200.947 434 LINE",
"188.779 307 LINE",
"67.2668 307 LINE",
"58.6001 177 LINE",
"175.816 177 LINE",
"155.816 -20 LINE",
"265.123 -20 LINE",
"285.123 177 LINE",
"391.816 177 LINE",
"371.816 -20 LINE",
"481.123 -20 LINE",
"501.123 177 LINE",
"608.935 177 LINE"
);
},
{
closed = 1;
nodes = (
"298.191 307 LINE",
"311.119 434 LINE",
"417.809 434 LINE",
"404.881 307 LINE"
);
}
);
width = 704;
}
);
unicode = 0023;
},
{
glyphname = question;
lastChange = "2018-12-31 15:11:51 +0000";
layers = (
{
components = (
{
name = _dot;
transform = "{1, 0, 0, 1, 104, -609}";
}
);
layerId = "7EBE3D46-E53E-419E-A3EC-596DA2EA1E0D";
name = Regular;
paths = (
{
closed = 1;
nodes = (
"323 485 OFFCURVE",
"306 453 OFFCURVE",
"216 369 CURVE SMOOTH",
"160 317 OFFCURVE",
"160 268 OFFCURVE",
"160 205 CURVE",
"285 205 LINE",
"285 268 OFFCURVE",
"295 291 OFFCURVE",
"315 311 CURVE SMOOTH",
"425 426 OFFCURVE",
"455 448 OFFCURVE",
"455 530 CURVE SMOOTH",
"455 636 OFFCURVE",
"386 718 OFFCURVE",
"241 718 CURVE SMOOTH",
"195 718 OFFCURVE",
"129 709 OFFCURVE",
"77 673 CURVE",
"95 553 LINE",
"136 574 OFFCURVE",
"184 594 OFFCURVE",
"240 594 CURVE SMOOTH",
"309 594 OFFCURVE",
"323 550 OFFCURVE",
"323 522 CURVE SMOOTH"
);
}
);
width = 518;
}
);
unicode = 003F;
},
{
glyphname = braceleft;
lastChange = "2017-02-21 06:29:50 +0000";
layers = (
{
layerId = "7EBE3D46-E53E-419E-A3EC-596DA2EA1E0D";
name = Regular;
paths = (
{
closed = 1;
nodes = (
"449 -85 LINE",
"410 -85 LINE",
"352.045 -85 OFFCURVE",
"323.97 -65.6751 OFFCURVE",
"319 -24.0767 CURVE",
"319 153 LINE",
"319 244.717 OFFCURVE",
"275.956 298.83 OFFCURVE",
"205.866 304.925 CURVE",
"206.574 265.249 LINE",
"276.175 276.345 OFFCURVE",
"318 330.472 OFFCURVE",
"318 420 CURVE",
"318 541.931 LINE",
"322.95 582.198 OFFCURVE",
"351.097 601 OFFCURVE",
"410 601 CURVE",
"449 601 LINE",
"449 733 LINE",
"393 733 LINE",
"254.845 733 OFFCURVE",
"197 652.017 OFFCURVE",
"197 533 CURVE",
"197 429 LINE",
"197 373.57 OFFCURVE",
"180.619 351 OFFCURVE",
"91 351 CURVE",
"60 351 LINE",
"60 221 LINE",
"91 221 LINE",
"176.747 221 OFFCURVE",
"197 193.017 OFFCURVE",
"197 141 CURVE",
"197 -17 LINE",
"197 -147.532 OFFCURVE",
"267.898 -215 OFFCURVE",
"393 -215 CURVE",
"449 -215 LINE"
);
}
);
width = 509;
}
);
unicode = 007B;
},
{
glyphname = braceright;
lastChange = "2017-02-24 15:41:04 +0000";
layers = (
{
layerId = "7EBE3D46-E53E-419E-A3EC-596DA2EA1E0D";
name = Regular;
paths = (
{
closed = 1;
nodes = (
"116 -214 LINE",
"241.102 -214 OFFCURVE",
"312 -146.532 OFFCURVE",
"312 -16 CURVE",
"312 142 LINE",
"312 194.017 OFFCURVE",
"332.253 222 OFFCURVE",
"418 222 CURVE",
"449 222 LINE",
"449 352 LINE",
"418 352 LINE",
"328.381 352 OFFCURVE",
"312 374.57 OFFCURVE",
"312 430 CURVE",
"312 534 LINE",
"312 653.017 OFFCURVE",
"254.155 734 OFFCURVE",
"116 734 CURVE",
"60 734 LINE",
"60 602 LINE",
"99 602 LINE",
"157.903 602 OFFCURVE",
"186.05 583.198 OFFCURVE",
"191 542.931 CURVE",
"191 421 LINE",
"191 331.472 OFFCURVE",
"232.825 277.345 OFFCURVE",
"302.426 266.249 CURVE",
"303.134 305.925 LINE",
"233.044 299.83 OFFCURVE",
"190 245.717 OFFCURVE",
"190 154 CURVE",
"190 -23.0767 LINE",
"185.03 -64.6751 OFFCURVE",
"156.955 -84 OFFCURVE",
"99 -84 CURVE",
"60 -84 LINE",
"60 -214 LINE"
);
}
);
width = 506;
}
);
unicode = 007D;
},
{
glyphname = currency;
lastChange = "2017-02-21 06:29:50 +0000";
layers = (
{
layerId = "7EBE3D46-E53E-419E-A3EC-596DA2EA1E0D";
name = Regular;
paths = (
{
closed = 1;
nodes = (
"142.047 599.211 LINE",
"48.8948 507.353 LINE",
"131.269 422.811 LINE",
"134.715 431.428 LINE",
"128.216 415.739 OFFCURVE",
"123 392.267 OFFCURVE",
"123 369 CURVE",
"123 346.733 OFFCURVE",
"128.158 323.522 OFFCURVE",
"134.68 306.751 CURVE",
"134.513 307.675 LINE",
"134.613 307.375 OFFCURVE",
"136.74 296.047 OFFCURVE",
"138.929 293.858 CURVE",
"138.882 322.047 LINE",
"50.783 232.758 LINE",
"144.002 140.834 LINE",
"222.86 218.681 LINE",
"242.495 211.62 OFFCURVE",
"260.397 209 OFFCURVE",
"279 209 CURVE",
"298.524 209 OFFCURVE",
"316.485 211.618 OFFCURVE",
"336.115 218.672 CURVE",
"419 135.787 LINE",
"512.325 229.111 LINE",
"430.769 309.647 LINE",
"425.202 302.996 OFFCURVE",
"422.002 299.624 OFFCURVE",
"420.3 298.2 CURVE",
"429.854 315.155 OFFCURVE",
"437 343.134 OFFCURVE",
"437 369 CURVE",
"437 397.055 OFFCURVE",
"429.209 426.34 OFFCURVE",
"419.396 441.584 CURVE",
"437.607 432.692 OFFCURVE",
"429.629 420.575 OFFCURVE",
"420.944 437.944 CURVE",
"419.113 414.943 LINE",
"516.23 513.23 LINE",
"422.976 605.189 LINE",
"347 529.213 LINE",
"347 514.502 LINE",
"322.729 526.386 OFFCURVE",
"301.898 530 OFFCURVE",
"279 530 CURVE",
"259.604 530 OFFCURVE",
"240.904 527.141 OFFCURVE",
"219.935 518.148 CURVE",
"221.022 519.236 LINE"
);
},
{
closed = 1;
nodes = (
"321.81 418 OFFCURVE",
"347.691 382.07 OFFCURVE",
"332.938 350.458 CURVE",
"332.769 349.692 LINE",
"327.276 336.509 OFFCURVE",
"305.284 321 OFFCURVE",
"279 321 CURVE",
"260.27 321 OFFCURVE",
"244.65 325.723 OFFCURVE",
"237.328 333.609 CURVE",
"237.071 334.142 LINE",
"223.633 347.58 OFFCURVE",
"221 355.041 OFFCURVE",
"221 369 CURVE",
"221 374.733 OFFCURVE",
"221.574 377.315 OFFCURVE",
"225.944 386.056 CURVE",
"226.138 386.877 LINE",
"233.521 403.489 OFFCURVE",
"253.757 418 OFFCURVE",
"279 418 CURVE"
);
}
);
width = 565;
}
);
unicode = 00A4;
},
{
glyphname = infinity;
lastChange = "2017-02-21 06:29:50 +0000";
layers = (
{
layerId = "7EBE3D46-E53E-419E-A3EC-596DA2EA1E0D";
name = Regular;
paths = (
{
closed = 1;
nodes = (
"334.442 136 OFFCURVE",
"400.952 167.9 OFFCURVE",
"433.52 217.443 CURVE",
"458.985 170.021 OFFCURVE",
"494.602 132.916 OFFCURVE",
"587.902 132 CURVE",
"725.606 130.988 OFFCURVE",
"809.915 229.718 OFFCURVE",
"811 358.832 CURVE",
"812.087 489.374 OFFCURVE",
"720.497 592 OFFCURVE",
"591 592 CURVE",
"527.831 592 OFFCURVE",
"466.154 556.154 OFFCURVE",
"433.372 513.376 CURVE",
"402.924 557.712 OFFCURVE",
"341.457 592 OFFCURVE",
"275 592 CURVE",
"143.244 592 OFFCURVE",
"61.0841 490.965 OFFCURVE",
"60 364.171 CURVE",
"58.9161 226.467 OFFCURVE",
"141.565 136 OFFCURVE",
"273 136 CURVE"
);
},
{
closed = 1;
nodes = (
"515.385 268.956 OFFCURVE",
"477.195 308.829 OFFCURVE",
"477.999 362.702 CURVE",
"478 416.294 OFFCURVE",
"518.124 454 OFFCURVE",
"583 454 CURVE",
"591 454 LINE",
"659.954 453.042 OFFCURVE",
"701 416.017 OFFCURVE",
"701 361 CURVE",
"700.198 306.716 OFFCURVE",
"658.845 267.043 OFFCURVE",
"589.137 267.998 CURVE"
);
},
{
closed = 1;
nodes = (
"200.052 270 OFFCURVE",
"170.171 309.214 OFFCURVE",
"170.999 364.702 CURVE",
"171 419.823 OFFCURVE",
"202.685 456.947 OFFCURVE",
"267.855 456.002 CURVE",
"275 456 LINE",
"344.924 456 OFFCURVE",
"386 418.162 OFFCURVE",
"386 363 CURVE",
"386 362 LINE",
"386 356 LINE",
"385.223 307.287 OFFCURVE",
"343.011 270 OFFCURVE",
"273 270 CURVE"
);
}
);
width = 871;
}
);
unicode = 221E;
},
{
glyphname = percent;
lastChange = "2021-07-05 12:16:50 +0000";
layers = (
{
components = (
{
name = _percent;
transform = "{1, 0, 0, 1, 390, -251}";
},
{
name = _percent;
transform = "{1, 0, 0, 1, 69, 192}";
}
);
layerId = "7EBE3D46-E53E-419E-A3EC-596DA2EA1E0D";
name = Regular;
paths = (
{
closed = 1;
nodes = (
"542 700 LINE",
"101 0 LINE",
"213 0 LINE",
"658 700 LINE"
);
}
);
width = 696;
}
);
unicode = 0025;
},
{
glyphname = radical;
lastChange = "2017-02-21 06:29:50 +0000";
layers = (
{
components = (
{
name = _EF_horizontal;
transform = "{1, 0, 0, 1, 324, 308}";
},
{
name = _backslash;
transform = "{-1, 0, 0, 1, 595, 1}";
}
);
layerId = "7EBE3D46-E53E-419E-A3EC-596DA2EA1E0D";
name = Regular;
paths = (
{
closed = 1;
nodes = (
"60 390.251 LINE",
"224.042 -106 LINE",
"282.263 -106 LINE",
"315.457 3.41506 LINE",
"166.928 449 LINE",
"60 449 LINE"
);
}
);
width = 730;
}
);
unicode = 221A;
},
{
glyphname = at;
lastChange = "2017-02-21 06:29:50 +0000";
layers = (
{
layerId = "7EBE3D46-E53E-419E-A3EC-596DA2EA1E0D";
name = Regular;
paths = (
{
closed = 1;
nodes = (
"573.726 73 LINE",
"687.058 73 LINE",
"734.274 521 LINE",
"620.942 521 LINE"
);
},
{
closed = 1;
nodes = (
"636.948 470.588 LINE",
"603.484 520.629 OFFCURVE",
"551.349 534 OFFCURVE",
"504 534 CURVE",
"347.281 534 OFFCURVE",
"268.815 404.313 OFFCURVE",
"256.055 283.094 CURVE",
"249.05 212.99 LINE",
"236.108 77.0523 OFFCURVE",
"312.92 -28 OFFCURVE",
"429 -28 CURVE",
"515.289 -28 OFFCURVE",
"568.977 20.4877 OFFCURVE",
"596.342 79.112 CURVE"
);
},
{
closed = 1;
nodes = (
"366.952 269.049 LINE",
"374.16 342.021 OFFCURVE",
"407.609 409 OFFCURVE",
"495 409 CURVE",
"563.558 409 OFFCURVE",
"596.796 389.03 OFFCURVE",
"607.69 380.616 CURVE",
"597.059 283.169 LINE",
"589.271 214.086 OFFCURVE",
"569.884 96 OFFCURVE",
"438 96 CURVE",
"377.153 96 OFFCURVE",
"353.933 149.24 OFFCURVE",
"361.932 217.678 CURVE"
);
},
{
closed = 1;
nodes = (
"576.628 117 LINE",
"563.145 -102.955 OFFCURVE",
"770.508 -96.3564 OFFCURVE",
"844.099 5.2698 CURVE",
"888.902 67.6319 OFFCURVE",
"923 152.328 OFFCURVE",
"923 268 CURVE",
"923 573.468 OFFCURVE",
"725.554 710 OFFCURVE",
"491 710 CURVE",
"258.209 710 OFFCURVE",
"80 565.535 OFFCURVE",
"80 268 CURVE",
"80 -29.5792 OFFCURVE",
"258.221 -173 OFFCURVE",
"491 -173 CURVE",
"535.219 -173 OFFCURVE",
"579.537 -166.56 OFFCURVE",
"623.122 -152.665 CURVE",
"574.854 -31.9953 LINE",
"546.566 -39.3436 OFFCURVE",
"522.41 -44 OFFCURVE",
"490 -44 CURVE",
"304.117 -44 OFFCURVE",
"193 61.5674 OFFCURVE",
"193 273 CURVE",
"193 485.963 OFFCURVE",
"303.965 584 OFFCURVE",
"490 584 CURVE",
"676.305 584 OFFCURVE",
"807 485.01 OFFCURVE",
"807 273 CURVE",
"807 216.712 OFFCURVE",
"797.193 163.218 OFFCURVE",
"773.056 114.944 CURVE",
"773.429 115.797 OFFCURVE",
"773.724 116.395 OFFCURVE",
"774.009 117 CURVE"
);
}
);
width = 983;
}
);
unicode = 0040;
},
{
glyphname = ampersand;
lastChange = "2017-02-21 06:29:50 +0000";
layers = (
{
layerId = "7EBE3D46-E53E-419E-A3EC-596DA2EA1E0D";
name = Regular;
paths = (
{
closed = 1;
nodes = (
"174 244.536 OFFCURVE",
"197.848 274.958 OFFCURVE",
"243.991 306.907 CURVE",
"388.108 123.004 LINE",
"361.711 102.162 OFFCURVE",
"330.367 91 OFFCURVE",
"292 91 CURVE",
"216.263 91 OFFCURVE",
"174 133.275 OFFCURVE",
"174 194 CURVE"
);
},
{
closed = 1;
nodes = (
"379 512.87 OFFCURVE",
"341.954 485.138 OFFCURVE",
"281.247 452.824 CURVE",
"273.894 462.279 LINE",
"241.324 503.338 OFFCURVE",
"232 523.419 OFFCURVE",
"232 556 CURVE",
"232 593.235 OFFCURVE",
"255.914 623 OFFCURVE",
"308 623 CURVE",
"353.803 623.935 OFFCURVE",
"379 599.488 OFFCURVE",
"379 561 CURVE"
);
},
{
closed = 1;
nodes = (
"619 30.9584 LINE",
"539.562 127.218 LINE",
"571.443 189.868 OFFCURVE",
"595.617 271.807 OFFCURVE",
"590.252 328.683 CURVE",
"479.306 368.916 LINE",
"482.839 304.947 OFFCURVE",
"472.479 273.167 OFFCURVE",
"457.454 232.41 CURVE",
"349.165 367.368 LINE",
"420.505 409.652 OFFCURVE",
"491 458.974 OFFCURVE",
"491 570 CURVE",
"491 660.985 OFFCURVE",
"424.702 741 OFFCURVE",
"311 741 CURVE",
"192.461 741 OFFCURVE",
"119 657.368 OFFCURVE",
"119 547 CURVE",
"119 510.172 OFFCURVE",
"129.529 470.112 OFFCURVE",
"149.538 433.174 CURVE",
"177.348 392.723 LINE",
"118.348 352.207 OFFCURVE",
"60 293.675 OFFCURVE",
"60 183 CURVE",
"60 61.0379 OFFCURVE",
"144.695 -27 OFFCURVE",
"279 -27 CURVE",
"346.974 -27 OFFCURVE",
"405.1 -5.5159 OFFCURVE",
"457.203 35.7844 CURVE",
"502.222 -20 LINE",
"619 -20 LINE"
);
}
);
width = 679;
}
);
unicode = 0026;
},
{
glyphname = paragraph;
lastChange = "2017-02-21 06:29:50 +0000";
layers = (
{
layerId = "7EBE3D46-E53E-419E-A3EC-596DA2EA1E0D";
name = Regular;
paths = (
{
closed = 1;
nodes = (
"141.134 298.974 OFFCURVE",
"80 386.607 OFFCURVE",
"80 489 CURVE",
"80 593.413 OFFCURVE",
"157.486 679 OFFCURVE",
"343 679 CURVE",
"511 679 LINE",
"511 21 LINE",
"439 21 LINE",
"439 647 LINE",
"335 647 LINE",
"335 296.074 LINE"
);
}
);
width = 591;
}
);
unicode = 00B6;
},
{
glyphname = section;
lastChange = "2017-02-21 06:29:50 +0000";
layers = (
{
layerId = "7EBE3D46-E53E-419E-A3EC-596DA2EA1E0D";
name = Regular;
paths = (
{
closed = 1;
nodes = (
"517.095 90.1516 OFFCURVE",
"548 152.578 OFFCURVE",
"548 212 CURVE",
"548 415.69 OFFCURVE",
"235 475.35 OFFCURVE",
"235 549 CURVE",
"235 562.113 OFFCURVE",
"235.719 563.14 OFFCURVE",
"258.547 578.359 CURVE",
"273.992 589.295 OFFCURVE",
"304.076 599 OFFCURVE",
"351 599 CURVE",
"396.854 599 OFFCURVE",
"437.863 593.05 OFFCURVE",
"488 579.319 CURVE",
"488 712.96 LINE",
"443.556 722.334 OFFCURVE",
"397.694 728 OFFCURVE",
"353 728 CURVE",
"167.562 728 OFFCURVE",
"116 620.885 OFFCURVE",
"116 540 CURVE",
"116 506.11 OFFCURVE",
"128.533 477.065 OFFCURVE",
"142.542 457.382 CURVE",
"89.3522 417.077 OFFCURVE",
"60 351.226 OFFCURVE",
"60 295 CURVE",
"60 92.3911 OFFCURVE",
"376 29.7509 OFFCURVE",
"376 -38 CURVE",
"376 -75.4736 OFFCURVE",
"338.749 -94 OFFCURVE",
"249 -94 CURVE",
"183.038 -94 OFFCURVE",
"135.933 -83.5014 OFFCURVE",
"78 -64.7952 CURVE",
"78 -204.643 LINE",
"135.372 -218.303 OFFCURVE",
"173.365 -226 OFFCURVE",
"253 -226 CURVE",
"358.15 -226 OFFCURVE",
"494 -169.935 OFFCURVE",
"494 -32 CURVE",
"494 -0.904491 OFFCURVE",
"481.191 29.1995 OFFCURVE",
"466.027 50.1068 CURVE"
);
},
{
closed = 1;
nodes = (
"279.791 184.331 OFFCURVE",
"174 233.153 OFFCURVE",
"174 303 CURVE",
"174 325.181 OFFCURVE",
"191.232 360.484 OFFCURVE",
"230.928 381.746 CURVE",
"324.62 320.677 OFFCURVE",
"435 274.381 OFFCURVE",
"435 204 CURVE",
"435 182.893 OFFCURVE",
"416.16 145.724 OFFCURVE",
"376.029 123.26 CURVE"
);
}
);
width = 608;
}
);
unicode = 00A7;
},
{
glyphname = degree;
lastChange = "2017-02-21 06:29:50 +0000";
layers = (
{
layerId = "7EBE3D46-E53E-419E-A3EC-596DA2EA1E0D";
name = Regular;
paths = (
{
closed = 1;
nodes = (
"294.213 407 OFFCURVE",
"367 479.787 OFFCURVE",
"367 571 CURVE",
"367 661.213 OFFCURVE",
"294.213 734 OFFCURVE",
"214 734 CURVE",
"132.787 734 OFFCURVE",
"60 661.213 OFFCURVE",
"60 571 CURVE",
"60 479.787 OFFCURVE",
"132.787 407 OFFCURVE",
"214 407 CURVE"
);
},
{
closed = 1;
nodes = (
"174.371 513 OFFCURVE",
"147 541.139 OFFCURVE",
"147 572 CURVE",
"147 600.854 OFFCURVE",
"174.371 629 OFFCURVE",
"215 629 CURVE",
"254.696 629 OFFCURVE",
"283 600.665 OFFCURVE",
"283 572 CURVE",
"283 541.328 OFFCURVE",
"254.696 513 OFFCURVE",
"215 513 CURVE"
);
}
);
width = 427;
}
);
unicode = 00B0;
},
{
glyphname = cedilla;
lastChange = "2021-07-05 13:07:59 +0000";
layers = (
{
layerId = "7EBE3D46-E53E-419E-A3EC-596DA2EA1E0D";
name = Regular;
paths = (
{
closed = 1;
nodes = (
"218.523 -91.6867 LINE",
"224 -96 OFFCURVE",
"294 -65 OFFCURVE",
"294 -110 CURVE",
"294 -158 OFFCURVE",
"254 -154 OFFCURVE",
"218 -139 CURVE",
"197.491 -229.563 LINE",
"299.19 -255.245 OFFCURVE",
"397 -247.825 OFFCURVE",
"397 -117 CURVE",
"397 -30.6913 OFFCURVE",
"349.653 -14.508 OFFCURVE",
"323.905 -12.0777 CURVE",
"334.318 36.8636 LINE",
"237.744 25.1181 LINE"
);
}
);
width = 600;
}
);
unicode = 00B8;
},
{
glyphname = ogonek;
lastChange = "2017-02-21 06:29:50 +0000";
layers = (
{
layerId = "7EBE3D46-E53E-419E-A3EC-596DA2EA1E0D";
name = Regular;
paths = (
{
closed = 1;
nodes = (
"382.937 -129.233 LINE",
"372.17 -107.069 LINE",
"360.999 -108 OFFCURVE",
"346 -108 OFFCURVE",
"337 -108 CURVE",
"303.682 -108 OFFCURVE",
"297 -100.455 OFFCURVE",
"297 -90 CURVE",
"297 -67.3406 OFFCURVE",
"307.445 -53.1233 OFFCURVE",
"345 -41.737 CURVE",
"345 20 LINE",
"243.692 20 LINE",
"172.394 -23.1266 OFFCURVE",
"171 -80.8055 OFFCURVE",
"171 -115 CURVE",
"171 -176.581 OFFCURVE",
"228.547 -240 OFFCURVE",
"305 -240 CURVE",
"324.004 -240 OFFCURVE",
"351.778 -238.749 OFFCURVE",
"371.118 -234.429 CURVE"
);
}
);
width = 600;
}
);
unicode = 02DB;
},
{
glyphname = ring;
lastChange = "2017-02-21 06:29:50 +0000";
layers = (
{
layerId = "7EBE3D46-E53E-419E-A3EC-596DA2EA1E0D";
name = Regular;
paths = (
{
closed = 1;
nodes = (
"378.025 510 OFFCURVE",
"443 574.975 OFFCURVE",
"443 655.5 CURVE",
"443 736.025 OFFCURVE",
"378.025 801 OFFCURVE",
"307.5 801 CURVE",
"236.975 801 OFFCURVE",
"172 736.025 OFFCURVE",
"172 655.5 CURVE",
"172 574.975 OFFCURVE",
"236.975 510 OFFCURVE",
"307.5 510 CURVE"
);
},
{
closed = 1;
nodes = (
"281.343 618 OFFCURVE",
"263 636.403 OFFCURVE",
"263 653 CURVE",
"263 670.34 OFFCURVE",
"281.25 688 OFFCURVE",
"308 688 CURVE",
"334.75 688 OFFCURVE",
"353 670.34 OFFCURVE",
"353 653 CURVE",
"353 636.403 OFFCURVE",
"334.657 618 OFFCURVE",
"308 618 CURVE"
);
}
);
width = 600;
}
);
unicode = 02DA;
},
{
glyphname = _one.001;
lastChange = "2017-02-21 06:29:50 +0000";
layers = (
{
components = (
{
name = _I_small;
transform = "{1, 0, 0, 1, 117, 3}";
},
{
name = _I_small;
transform = "{1, 0, 0, 1, 117, 168}";
},
{
name = _I_small;
transform = "{1, 0, 0, 1, 117, 331}";
},
{
name = _I_small;
transform = "{1, 0, 0, 1, 117, 477}";
},
{
name = "_dash-small";
transform = "{1, 0, 0, 1, -1, -219}";
},
{
name = "_dash-small";
transform = "{1, 0, 0, 1, -84, -219}";
}
);
layerId = "7EBE3D46-E53E-419E-A3EC-596DA2EA1E0D";
name = Regular;
paths = (
{
closed = 1;
nodes = (
"38 556.866 LINE",
"260 604.124 LINE",
"260 720 LINE",
"209.965 720 LINE",
"38 677.54 LINE"
);
}
);
width = 600;
}
);
},
{
glyphname = newGlyphaaa;
lastChange = "2021-07-05 13:07:30 +0000";
layers = (
{
layerId = "7EBE3D46-E53E-419E-A3EC-596DA2EA1E0D";
name = Regular;
paths = (
{
closed = 1;
nodes = (
"453.418 163 OFFCURVE",
"504 234.239 OFFCURVE",
"504 317.5 CURVE",
"504 400.761 OFFCURVE",
"453.418 472 OFFCURVE",
"398.5 472 CURVE",
"343.582 472 OFFCURVE",
"293 400.761 OFFCURVE",
"293 317.5 CURVE",
"293 234.239 OFFCURVE",
"343.582 163 OFFCURVE",
"398.5 163 CURVE"
);
}
);
width = 600;
}
);
},
{
glyphname = _slash;
lastChange = "2021-06-30 14:01:37 +0000";
layers = (
{
layerId = "7EBE3D46-E53E-419E-A3EC-596DA2EA1E0D";
name = Regular;
paths = (
{
closed = 1;
nodes = (
"270 676 LINE",
"-16 -19 LINE",
"108 -19 LINE",
"323 507 LINE",
"344 507 LINE",
"286 676 LINE"
);
}
);
width = 600;
}
);
},
{
glyphname = _curve_B;
lastChange = "2021-07-05 08:47:57 +0000";
layers = (
{
layerId = "7EBE3D46-E53E-419E-A3EC-596DA2EA1E0D";
name = Regular;
paths = (
{
closed = 1;
nodes = (
"128 717 OFFCURVE",
"52 717 OFFCURVE",
"22 716 CURVE",
"22 576.318 LINE",
"43.8401 593.852 OFFCURVE",
"139 596 OFFCURVE",
"227 594 CURVE",
"307 591 OFFCURVE",
"338 556 OFFCURVE",
"338 502 CURVE",
"338 429 OFFCURVE",
"301 408 OFFCURVE",
"201 408 CURVE",
"76 408 LINE",
"54 317 LINE",
"247 317 LINE",
"388 317 OFFCURVE",
"462 401 OFFCURVE",
"462 508 CURVE",
"462 644 OFFCURVE",
"372 714 OFFCURVE",
"226 716 CURVE"
);
}
);
width = 469;
}
);
},
{
glyphname = _I_dbh;
lastChange = "2017-02-21 19:10:19 +0000";
layers = (
{
components = (
{
name = _I_small;
transform = "{1, 0, 0, 1, 0, 98}";
},
{
name = _I_small;
transform = "{1, 0, 0, 1, 0, 426}";
},
{
name = _I_small;
transform = "{1, 0, 0, 1, 0, 562}";
},
{
name = _I_small;
transform = "{1, 0, 0, 1, 0, 533}";
},
{
name = _I_small;
transform = "{1, 0, 0, 1, 0, 21}";
},
{
name = _I_small;
transform = "{1, 0, 0, 1, 0, 165}";
},
{
name = _I_small;
transform = "{1, 0, 0, 1, 0, 328}";
},
{
name = _I_small;
transform = "{1, 0, 0, 1, 0, 474}";
}
);
layerId = "7EBE3D46-E53E-419E-A3EC-596DA2EA1E0D";
name = Regular;
paths = (
{
closed = 1;
nodes = (
"30 244 LINE",
"143 244 LINE",
"143 451 LINE",
"30 451 LINE"
);
}
);
width = 509;
}
);
},
{
glyphname = _curve_b;
lastChange = "2021-07-01 01:46:10 +0000";
layers = (
{
layerId = "7EBE3D46-E53E-419E-A3EC-596DA2EA1E0D";
name = Regular;
paths = (
{
closed = 1;
nodes = (
"76 500 OFFCURVE",
"130 307 OFFCURVE",
"132 254 CURVE",
"117 136 LINE",
"151 99 LINE",
"151 314 OFFCURVE",
"184 373 OFFCURVE",
"253 373 CURVE",
"310 373 OFFCURVE",
"338 327 OFFCURVE",
"337 241 CURVE",
"337 153 OFFCURVE",
"299 106 OFFCURVE",
"245 105 CURVE",
"179 104 OFFCURVE",
"162 123 OFFCURVE",
"119 143 CURVE",
"114 108 LINE",
"138 42 OFFCURVE",
"176 -11 OFFCURVE",
"261 -11 CURVE",
"390 -11 OFFCURVE",
"449 100 OFFCURVE",
"449 232 CURVE",
"450 256 LINE",
"448 395 OFFCURVE",
"392 500 OFFCURVE",
"282 500 CURVE"
);
}
);
width = 493;
}
);
},
{
glyphname = _C_curve;
lastChange = "2019-01-08 15:33:21 +0000";
layers = (
{
layerId = "7EBE3D46-E53E-419E-A3EC-596DA2EA1E0D";
name = Regular;
paths = (
{
closed = 1;
nodes = (
"456 642 LINE",
"409 673 OFFCURVE",
"356 687 OFFCURVE",
"282 685 CURVE SMOOTH",
"134 682 OFFCURVE",
"1 599 OFFCURVE",
"1 321 CURVE SMOOTH",
"1 69 OFFCURVE",
"115 121 OFFCURVE",
"115 352 CURVE SMOOTH",
"115 508 OFFCURVE",
"199 566 OFFCURVE",
"286 565 CURVE SMOOTH",
"345 564 OFFCURVE",
"394 545 OFFCURVE",
"431 523 CURVE"
);
}
);
width = 506;
}
);
},
{
glyphname = _I_small;
lastChange = "2017-02-21 06:29:50 +0000";
layers = (
{
layerId = "7EBE3D46-E53E-419E-A3EC-596DA2EA1E0D";
name = Regular;
paths = (
{
closed = 1;
nodes = (
"30 -19 LINE",
"143 -19 LINE",
"143 188 LINE",
"30 188 LINE"
);
}
);
width = 469;
}
);
},
{
glyphname = _curve_generic;
lastChange = "2017-02-21 06:29:50 +0000";
layers = (
{
layerId = "7EBE3D46-E53E-419E-A3EC-596DA2EA1E0D";
name = Regular;
paths = (
{
closed = 1;
nodes = (
"347 406.79 OFFCURVE",
"460 384.949 OFFCURVE",
"460 499 CURVE",
"460 619.435 OFFCURVE",
"392.446 723.018 OFFCURVE",
"251.928 721.999 CURVE",
"88.8067 720.905 LINE",
"111.196 600 LINE",
"233 600 LINE",
"316.89 600 OFFCURVE",
"347 559.74 OFFCURVE",
"347 498 CURVE"
);
}
);
width = 600;
}
);
},
{
glyphname = _EF_horizontal;
lastChange = "2017-02-21 06:29:50 +0000";
layers = (
{
layerId = "7EBE3D46-E53E-419E-A3EC-596DA2EA1E0D";
name = Regular;
paths = (
{
closed = 1;
nodes = (
"124 292 LINE",
"346 292 LINE",
"346 413 LINE",
"124 413 LINE"
);
}
);
width = 600;
}
);
},
{
glyphname = "_dash-small";
lastChange = "2018-12-26 09:43:30 +0000";
layers = (
{
layerId = "7EBE3D46-E53E-419E-A3EC-596DA2EA1E0D";
name = Regular;
paths = (
{
closed = 1;
nodes = (
"160 222 LINE",
"342 222 LINE",
"342 343 LINE",
"160 343 LINE"
);
}
);
width = 600;
}
);
},
{
glyphname = _dot;
lastChange = "2017-02-23 13:03:33 +0000";
layers = (
{
layerId = "7EBE3D46-E53E-419E-A3EC-596DA2EA1E0D";
name = Regular;
paths = (
{
closed = 1;
nodes = (
"172.953 579 OFFCURVE",
"217 614 OFFCURVE",
"217 669 CURVE",
"217 725 OFFCURVE",
"173.017 761 OFFCURVE",
"131 761 CURVE",
"87.9829 761 OFFCURVE",
"44 725 OFFCURVE",
"44 669 CURVE",
"44 614 OFFCURVE",
"88.0467 579 OFFCURVE",
"131 579 CURVE"
);
}
);
width = 260;
}
);
},
{
glyphname = _hmn;
lastChange = "2021-07-04 14:50:38 +0000";
layers = (
{
layerId = "7EBE3D46-E53E-419E-A3EC-596DA2EA1E0D";
name = Regular;
paths = (
{
closed = 1;
nodes = (
"172 511 OFFCURVE",
"125 408 OFFCURVE",
"116 286 CURVE",
"148 100 LINE",
"150 191 OFFCURVE",
"177 389 OFFCURVE",
"261 389 CURVE",
"325 389 OFFCURVE",
"331 330 OFFCURVE",
"331 249 CURVE",
"331 0 LINE SMOOTH",
"444 0 LINE",
"444 293 LINE",
"442 438 OFFCURVE",
"395 511 OFFCURVE",
"271 511 CURVE"
);
}
);
width = 600;
}
);
},
{
glyphname = _w_slash;
lastChange = "2021-07-01 01:39:46 +0000";
layers = (
{
layerId = "7EBE3D46-E53E-419E-A3EC-596DA2EA1E0D";
name = Regular;
paths = (
{
closed = 1;
nodes = (
"301 287 LINE",
"268 287 LINE",
"135 699 LINE",
"14 699 LINE",
"217 2 LINE",
"231 2 LINE"
);
}
);
width = 600;
}
);
},
{
glyphname = _w_slash_2;
lastChange = "2021-07-01 01:40:23 +0000";
layers = (
{
layerId = "7EBE3D46-E53E-419E-A3EC-596DA2EA1E0D";
name = Regular;
paths = (
{
closed = 1;
nodes = (
"275 13 LINE",
"382 404 LINE",
"392 403 LINE",
"383 690 LINE",
"335 690 LINE",
"186 168 LINE",
"237 -19 LINE"
);
}
);
width = 600;
}
);
},
{
glyphname = _X;
lastChange = "2021-07-05 12:21:40 +0000";
layers = (
{
layerId = "7EBE3D46-E53E-419E-A3EC-596DA2EA1E0D";
name = Regular;
paths = (
{
closed = 1;
nodes = (
"337 309 LINE",
"618 718 LINE",
"474 718 LINE",
"234 365 LINE",
"293 309 LINE"
);
}
);
width = 600;
}
);
},
{
glyphname = _curve_lower;
lastChange = "2021-06-30 14:19:01 +0000";
layers = (
{
layerId = "7EBE3D46-E53E-419E-A3EC-596DA2EA1E0D";
name = Regular;
paths = (
{
closed = 1;
nodes = (
"339 158 LINE",
"306 131 OFFCURVE",
"304 121 OFFCURVE",
"267 121 CURVE",
"231 121 OFFCURVE",
"206 142 OFFCURVE",
"206 194 CURVE",
"206 368 LINE",
"93 368 LINE",
"93 159 LINE",
"93 45 OFFCURVE",
"154 -9 OFFCURVE",
"262 -9 CURVE",
"337.747 -9 OFFCURVE",
"376.775 24.3716 OFFCURVE",
"419.361 72.4315 CURVE"
);
}
);
width = 476;
}
);
},
{
glyphname = _curve_lower_big;
lastChange = "2021-06-30 13:55:33 +0000";
layers = (
{
components = (
{
name = _c;
transform = "{1, 0, 0, -1, -609, 663}";
}
);
layerId = "7EBE3D46-E53E-419E-A3EC-596DA2EA1E0D";
name = Regular;
paths = (
{
closed = 1;
nodes = (
"-322 108 LINE",
"-405 104 OFFCURVE",
"-439 160 OFFCURVE",
"-439 241 CURVE",
"-439 261 LINE",
"-439 369 OFFCURVE",
"-553 345 OFFCURVE",
"-553 261 CURVE",
"-553 222 LINE",
"-553 70 OFFCURVE",
"-453 -27 OFFCURVE",
"-320 -22 CURVE"
);
}
);
width = 526;
}
);
},
{
glyphname = _o_curve;
lastChange = "2021-07-05 07:33:45 +0000";
layers = (
{
layerId = "7EBE3D46-E53E-419E-A3EC-596DA2EA1E0D";
name = Regular;
paths = (
{
closed = 1;
nodes = (
"253 516 LINE",
"110 516 OFFCURVE",
"36 405 OFFCURVE",
"34 247 CURVE",
"147 246 LINE",
"147 363 OFFCURVE",
"181 396 OFFCURVE",
"253 396 CURVE"
);
}
);
width = 900;
}
);
},
{
glyphname = _M;
lastChange = "2021-07-05 07:14:22 +0000";
layers = (
{
components = (
{
name = ball;
transform = "{1, 0, 0, 1, -33, -155}";
},
{
name = ball;
transform = "{1, 0, 0, 1, 229, 239}";
}
);
layerId = "7EBE3D46-E53E-419E-A3EC-596DA2EA1E0D";
name = Regular;
paths = (
{
closed = 1;
nodes = (
"613 547 LINE",
"612 707 LINE",
"602 728 LINE",
"537 739 LINE",
"293 431 LINE",
"302 313 LINE",
"342 292 LINE",
"530 536 LINE"
);
}
);
width = 642;
}
);
},
{
glyphname = _O;
lastChange = "2019-01-08 15:43:22 +0000";
layers = (
{
layerId = "7EBE3D46-E53E-419E-A3EC-596DA2EA1E0D";
name = Regular;
paths = (
{
closed = 1;
nodes = (
"302 727 LINE",
"284 727 LINE",
"120 727 OFFCURVE",
"10 592 OFFCURVE",
"10 361 CURVE",
"10 360 OFFCURVE",
"123 362 OFFCURVE",
"123 363 CURVE",
"123 536 OFFCURVE",
"192 594 OFFCURVE",
"295 594 CURVE",
"301.565 594 LINE"
);
}
);
width = 900;
}
);
},
{
glyphname = _x;
lastChange = "2017-02-22 17:52:04 +0000";
layers = (
{
layerId = "7EBE3D46-E53E-419E-A3EC-596DA2EA1E0D";
name = Regular;
paths = (
{
closed = 1;
nodes = (
"348 193.284 LINE",
"480 0 LINE",
"626 0 LINE",
"392.191 331 LINE",
"368 281 LINE"
);
}
);
width = 900;
}
);
},
{
glyphname = _w_small_slash;
lastChange = "2021-06-30 14:04:24 +0000";
layers = (
{
layerId = "7EBE3D46-E53E-419E-A3EC-596DA2EA1E0D";
name = Regular;
paths = (
{
closed = 1;
nodes = (
"255 208 LINE",
"249 208 LINE",
"153 500 LINE",
"24 500 LINE",
"201 10 LINE",
"216 10 LINE"
);
}
);
width = 900;
}
);
},
{
glyphname = _w_small_slash_2;
lastChange = "2021-06-30 14:05:24 +0000";
layers = (
{
layerId = "7EBE3D46-E53E-419E-A3EC-596DA2EA1E0D";
name = Regular;
paths = (
{
closed = 1;
nodes = (
"408 173 LINE",
"313 490 LINE",
"255 490 LINE",
"239 285 LINE",
"259 285 LINE",
"344 15 LINE",
"409 0 LINE"
);
}
);
width = 900;
}
);
},
{
glyphname = _y;
lastChange = "2021-06-30 14:03:27 +0000";
layers = (
{
layerId = "7EBE3D46-E53E-419E-A3EC-596DA2EA1E0D";
name = Regular;
paths = (
{
closed = 1;
nodes = (
"360 25 LINE",
"564.434 520 LINE",
"433.768 520 LINE",
"308 197 LINE",
"290 157 LINE",
"349 25 LINE"
);
}
);
width = 900;
}
);
},
{
glyphname = _D;
lastChange = "2021-07-01 01:38:16 +0000";
layers = (
{
layerId = "7EBE3D46-E53E-419E-A3EC-596DA2EA1E0D";
name = Regular;
paths = (
{
closed = 1;
nodes = (
"480 188 OFFCURVE",
"593 214 OFFCURVE",
"593 389 CURVE",
"593 612 OFFCURVE",
"463 718 OFFCURVE",
"283 721 CURVE",
"212 722 OFFCURVE",
"120.116 720.794 OFFCURVE",
"72 710.988 CURVE",
"72 579.802 LINE",
"113.299 593.77 OFFCURVE",
"216 596 OFFCURVE",
"270 596 CURVE",
"406 596 OFFCURVE",
"480 514 OFFCURVE",
"480 389 CURVE"
);
}
);
width = 533;
}
);
},
{
glyphname = _qtail;
lastChange = "2017-02-21 06:29:50 +0000";
layers = (
{
anchors = (
{
name = _tailq;
position = "{467, 92}";
}
);
layerId = "7EBE3D46-E53E-419E-A3EC-596DA2EA1E0D";
name = Regular;
paths = (
{
closed = 1;
nodes = (
"310 195.839 LINE",
"466.917 -19 LINE",
"557 -19 LINE",
"557 32.877 LINE",
"354.226 323 LINE",
"310 323 LINE"
);
}
);
width = 616;
}
);
},
{
glyphname = _m_curve;
lastChange = "2021-07-01 01:44:17 +0000";
layers = (
{
layerId = "7EBE3D46-E53E-419E-A3EC-596DA2EA1E0D";
name = Regular;
paths = (
{
closed = 1;
nodes = (
"147 511 OFFCURVE",
"100 408 OFFCURVE",
"91 286 CURVE",
"123 100 LINE",
"125 191 OFFCURVE",
"122 389 OFFCURVE",
"226 389 CURVE",
"270 389 OFFCURVE",
"276 330 OFFCURVE",
"276 249 CURVE",
"276 0 LINE SMOOTH",
"389 0 LINE",
"389 293 LINE",
"387 438 OFFCURVE",
"340 511 OFFCURVE",
"246 511 CURVE"
);
}
);
width = 741;
}
);
},
{
glyphname = _R_slash;
lastChange = "2021-07-05 09:05:48 +0000";
layers = (
{
components = (
{
name = ball;
transform = "{1, 0, 0, 1, 91, -449}";
}
);
layerId = "7EBE3D46-E53E-419E-A3EC-596DA2EA1E0D";
name = Regular;
paths = (
{
closed = 1;
nodes = (
"183.664 395 LINE",
"376.323 -18 LINE",
"427 -19 LINE",
"470 42 LINE",
"305.699 395 LINE"
);
}
);
width = 533;
}
);
},
{
glyphname = _fraction_slash;
lastChange = "2021-07-05 12:23:23 +0000";
layers = (
{
layerId = "7EBE3D46-E53E-419E-A3EC-596DA2EA1E0D";
name = Regular;
paths = (
{
closed = 1;
nodes = (
"406 700 LINE",
"172 1 LINE",
"247 1 LINE",
"473 700 LINE"
);
}
);
width = 810;
}
);
},
{
glyphname = _backslash;
lastChange = "2021-07-05 12:22:43 +0000";
layers = (
{
layerId = "7EBE3D46-E53E-419E-A3EC-596DA2EA1E0D";
name = Regular;
paths = (
{
closed = 1;
nodes = (
"286 0 LINE",
"385 0 LINE",
"161 700 LINE",
"60 700 LINE"
);
}
);
width = 600;
}
);
},
{
glyphname = _exclamation;
lastChange = "2017-02-21 06:29:50 +0000";
layers = (
{
layerId = "7EBE3D46-E53E-419E-A3EC-596DA2EA1E0D";
name = Regular;
paths = (
{
closed = 1;
nodes = (
"74.8395 218 LINE",
"186.161 218 LINE",
"207.896 719 LINE",
"53.1041 719 LINE"
);
}
);
width = 600;
}
);
},
{
glyphname = _two_question;
lastChange = "2021-07-05 09:37:32 +0000";
layers = (
{
layerId = "7EBE3D46-E53E-419E-A3EC-596DA2EA1E0D";
name = Regular;
paths = (
{
closed = 1;
nodes = (
"63 73 CURVE",
"106 20 LINE",
"163 20 LINE",
"163 212 OFFCURVE",
"484 270 OFFCURVE",
"484 498 CURVE",
"484 635 OFFCURVE",
"406 736 OFFCURVE",
"260 736 CURVE",
"212 736 OFFCURVE",
"132 736 OFFCURVE",
"73 692 CURVE",
"98 568 LINE",
"137 588 OFFCURVE",
"198 602 OFFCURVE",
"259 602 CURVE",
"342 602 OFFCURVE",
"362 547 OFFCURVE",
"362 500 CURVE",
"362 312 OFFCURVE",
"69 282 OFFCURVE"
);
}
);
width = 565;
}
);
},
{
glyphname = _quote;
lastChange = "2017-02-21 06:29:50 +0000";
layers = (
{
layerId = "7EBE3D46-E53E-419E-A3EC-596DA2EA1E0D";
name = Regular;
paths = (
{
closed = 1;
nodes = (
"120.666 -16.4477 LINE",
"127.74 -18.1455 OFFCURVE",
"112.137 -60.6496 OFFCURVE",
"74.5667 -132.445 CURVE",
"140.919 -146.562 LINE",
"143 -147 LINE",
"145.915 -147 OFFCURVE",
"243.203 -28.9636 OFFCURVE",
"228.485 96.2423 CURVE",
"117.317 19.456 LINE"
);
}
);
width = 600;
}
);
},
{
glyphname = _bracket;
lastChange = "2017-02-21 06:29:50 +0000";
layers = (
{
layerId = "7EBE3D46-E53E-419E-A3EC-596DA2EA1E0D";
name = Regular;
paths = (
{
closed = 1;
nodes = (
"496.569 -141.555 LINE",
"360.431 -14.5667 OFFCURVE",
"296 120.72 OFFCURVE",
"296 270 CURVE",
"296 419.201 OFFCURVE",
"359.285 552.265 OFFCURVE",
"496.507 681.688 CURVE",
"402.676 749.682 LINE",
"235.427 593.468 OFFCURVE",
"170 426.624 OFFCURVE",
"170 264 CURVE",
"170 88.7403 OFFCURVE",
"250.801 -73.559 OFFCURVE",
"401.726 -210.655 CURVE"
);
}
);
width = 600;
}
);
},
{
glyphname = _square_bracket;
lastChange = "2017-02-21 06:29:50 +0000";
layers = (
{
layerId = "7EBE3D46-E53E-419E-A3EC-596DA2EA1E0D";
name = Regular;
paths = (
{
closed = 1;
nodes = (
"300 721 LINE",
"93 721 LINE",
"93 -221 LINE",
"300 -221 LINE",
"300 -97 LINE",
"210 -97 LINE",
"210 596 LINE",
"300 596 LINE"
);
}
);
width = 600;
}
);
},
{
glyphname = _percent;
lastChange = "2021-07-05 12:17:55 +0000";
layers = (
{
layerId = "7EBE3D46-E53E-419E-A3EC-596DA2EA1E0D";
name = Regular;
paths = (
{
closed = 1;
nodes = (
"72.6153 555 OFFCURVE",
"1 513.291 OFFCURVE",
"1 387 CURVE",
"1 258.017 OFFCURVE",
"74.7302 220 OFFCURVE",
"143 220 CURVE",
"210.269 220 OFFCURVE",
"286 259.013 OFFCURVE",
"286 387 CURVE",
"286 513.448 OFFCURVE",
"212.357 555 OFFCURVE",
"143 555 CURVE"
);
},
{
closed = 1;
nodes = (
"174.239 445 OFFCURVE",
"180 430 OFFCURVE",
"180 387 CURVE",
"180 350 OFFCURVE",
"174.706 330 OFFCURVE",
"143 330 CURVE",
"111.897 330 OFFCURVE",
"106 352 OFFCURVE",
"106 387 CURVE",
"106 429 OFFCURVE",
"113.581 445 OFFCURVE",
"143 445 CURVE"
);
}
);
width = 600;
}
);
},
{
glyphname = _multiply;
lastChange = "2017-02-21 06:29:50 +0000";
layers = (
{
layerId = "7EBE3D46-E53E-419E-A3EC-596DA2EA1E0D";
name = Regular;
paths = (
{
closed = 1;
nodes = (
"433.661 279.448 LINE",
"198.363 530.068 LINE",
"114.135 458.066 LINE",
"353.86 199.646 LINE"
);
}
);
width = 561;
}
);
},
{
glyphname = _less_equal;
lastChange = "2017-02-21 06:29:50 +0000";
layers = (
{
layerId = "7EBE3D46-E53E-419E-A3EC-596DA2EA1E0D";
name = Regular;
paths = (
{
closed = 1;
nodes = (
"500 429.136 LINE",
"105.248 626 LINE",
"72 626 LINE",
"72 502.477 LINE",
"381.807 360.998 LINE",
"500 362.093 LINE"
);
}
);
width = 600;
}
);
},
{
glyphname = _f_integral;
lastChange = "2018-12-22 09:02:13 +0000";
layers = (
{
layerId = "7EBE3D46-E53E-419E-A3EC-596DA2EA1E0D";
name = Regular;
paths = (
{
closed = 1;
nodes = (
"346.052 746.062 OFFCURVE",
"315 753 OFFCURVE",
"273 753 CURVE",
"184 753 OFFCURVE",
"117 680.675 OFFCURVE",
"117 595 CURVE",
"117 346 LINE",
"230 346 LINE",
"230 533 LINE",
"230 593.14 OFFCURVE",
"251.516 616.041 OFFCURVE",
"287.27 617.007 CURVE",
"325.593 618.103 OFFCURVE",
"345.298 607.234 OFFCURVE",
"383.376 588.787 CURVE",
"405.885 716.806 LINE"
);
}
);
width = 390;
}
);
},
{
glyphname = _circum_part;
lastChange = "2017-02-21 06:29:50 +0000";
layers = (
{
layerId = "7EBE3D46-E53E-419E-A3EC-596DA2EA1E0D";
name = Regular;
paths = (
{
closed = 1;
nodes = (
"250.87 253.083 LINE",
"348.336 137 LINE",
"448 137 LINE",
"448 183.207 LINE",
"295.606 361 LINE",
"252.254 361 LINE"
);
}
);
width = 600;
}
);
},
{
glyphname = _circle;
lastChange = "2017-02-21 06:29:50 +0000";
layers = (
{
layerId = "7EBE3D46-E53E-419E-A3EC-596DA2EA1E0D";
name = Regular;
paths = (
{
closed = 1;
nodes = (
"433.197 36 OFFCURVE",
"584 185.741 OFFCURVE",
"584 372 CURVE",
"584 557.213 OFFCURVE",
"433.213 708 OFFCURVE",
"258 708 CURVE",
"81.7703 708 OFFCURVE",
"-68 557.167 OFFCURVE",
"-68 372 CURVE",
"-68 185.787 OFFCURVE",
"81.7868 36 OFFCURVE",
"258 36 CURVE"
);
},
{
closed = 1;
nodes = (
"118.453 133 OFFCURVE",
"14 246.682 OFFCURVE",
"14 375 CURVE",
"14 504.043 OFFCURVE",
"118.346 613 OFFCURVE",
"257 613 CURVE",
"395.675 613 OFFCURVE",
"501 503.984 OFFCURVE",
"501 375 CURVE",
"501 246.741 OFFCURVE",
"395.57 133 OFFCURVE",
"257 133 CURVE"
);
}
);
width = 515;
}
);
},
{
glyphname = _acute;
lastChange = "2017-02-21 06:29:50 +0000";
layers = (
{
layerId = "7EBE3D46-E53E-419E-A3EC-596DA2EA1E0D";
name = Regular;
paths = (
{
closed = 1;
nodes = (
"293.473 771.339 OFFCURVE",
"219.991 629.529 OFFCURVE",
"190.641 570 CURVE",
"291 570 LINE",
"295.488 570 OFFCURVE",
"410.219 762.692 OFFCURVE",
"386.013 786.905 CURVE",
"285.841 788.097 LINE"
);
}
);
width = 600;
}
);
},
{
glyphname = _breve;
lastChange = "2017-02-21 06:29:50 +0000";
layers = (
{
layerId = "7EBE3D46-E53E-419E-A3EC-596DA2EA1E0D";
name = Regular;
paths = (
{
closed = 1;
nodes = (
"90.0501 760.999 LINE",
"90.0501 761.222 OFFCURVE",
"66.3526 566 OFFCURVE",
"289 566 CURVE",
"393.283 566 OFFCURVE",
"391.794 689 OFFCURVE",
"267 689 CURVE",
"224.121 689 OFFCURVE",
"199.836 730.061 OFFCURVE",
"208.879 779 CURVE",
"100 779 LINE"
);
}
);
width = 600;
}
);
},
{
glyphname = _i_dotless_full;
lastChange = "2017-02-21 17:44:43 +0000";
layers = (
{
components = (
{
name = _I_small;
transform = "{1, 0, 0, 1, 101, 143}";
},
{
name = _I_small;
transform = "{1, 0, 0, 1, 101, 272}";
},
{
name = _I_small;
transform = "{1, 0, 0, 1, 101, 312}";
},
{
name = _I_small;
transform = "{1, 0, 0, 1, 101, 20}";
}
);
hints = (
{
horizontal = 1;
place = "{420.000000, 80.000000}";
}
);
layerId = "7EBE3D46-E53E-419E-A3EC-596DA2EA1E0D";
name = Regular;
paths = (
{
closed = 1;
nodes = (
"70 380 LINE",
"232 380 LINE",
"232 500 LINE",
"70 500 LINE"
);
}
);
width = 323;
}
);
},
{
glyphname = _slash_diacritics;
lastChange = "2017-02-21 06:29:50 +0000";
layers = (
{
layerId = "7EBE3D46-E53E-419E-A3EC-596DA2EA1E0D";
name = Regular;
paths = (
{
closed = 1;
nodes = (
"320.38 362.824 LINE",
"317.467 489.539 LINE",
"3.18253 373.413 LINE",
"1.72993 244.132 LINE"
);
}
);
width = 515;
}
);
},
{
glyphname = _cedilla_fragment;
lastChange = "2017-02-21 06:29:50 +0000";
layers = (
{
layerId = "7EBE3D46-E53E-419E-A3EC-596DA2EA1E0D";
name = Regular;
paths = (
{
closed = 1;
nodes = (
"287 296.999 LINE",
"324.517 273.221 OFFCURVE",
"363.33 251.951 OFFCURVE",
"421.182 253.003 CURVE",
"480.577 254.045 OFFCURVE",
"520.613 274.663 OFFCURVE",
"564.597 325.454 CURVE",
"535.841 447.325 LINE",
"498.376 412.337 OFFCURVE",
"458.097 391.105 OFFCURVE",
"414.744 389.993 CURVE",
"364.026 390 OFFCURVE",
"327.035 423.137 OFFCURVE",
"287 447.595 CURVE"
);
}
);
width = 600;
}
);
},
{
glyphname = _ve_cyr;
lastChange = "2019-01-10 16:15:38 +0000";
layers = (
{
layerId = "7EBE3D46-E53E-419E-A3EC-596DA2EA1E0D";
name = Regular;
paths = (
{
closed = 1;
nodes = (
"99.2428 439.381 LINE",
"109 415 LINE",
"120 415 OFFCURVE",
"244 415 OFFCURVE",
"255 415 CURVE",
"419.923 417.062 OFFCURVE",
"480 458 OFFCURVE",
"480 559 CURVE",
"480 661 OFFCURVE",
"399 703 OFFCURVE",
"261 702 CURVE",
"98 701 LINE",
"120 580 LINE",
"282 580 LINE",
"338 580 OFFCURVE",
"356 575 OFFCURVE",
"356 548 CURVE",
"356 517 OFFCURVE",
"339 504 OFFCURVE",
"279 504 CURVE",
"113.749 504 LINE"
);
}
);
width = 556;
}
);
},
{
glyphname = _three;
lastChange = "2021-07-05 09:46:08 +0000";
layers = (
{
layerId = "7EBE3D46-E53E-419E-A3EC-596DA2EA1E0D";
name = Regular;
paths = (
{
closed = 1;
nodes = (
"294 334 OFFCURVE",
"489 338 OFFCURVE",
"489 522 CURVE",
"489 639 OFFCURVE",
"391.302 730 OFFCURVE",
"245 730 CURVE",
"197.054 730 OFFCURVE",
"126.65 720.124 OFFCURVE",
"68.1519 676.289 CURVE",
"93.0666 551.716 LINE",
"131.67 572.248 OFFCURVE",
"182.758 596 OFFCURVE",
"244 596 CURVE",
"329.271 596 OFFCURVE",
"367 572 OFFCURVE",
"367 514 CURVE",
"367 421 OFFCURVE",
"284 417 OFFCURVE",
"162 417 CURVE",
"162 319 LINE"
);
}
);
width = 539;
}
);
},
{
glyphname = _ze_cyr;
lastChange = "2021-07-05 12:05:14 +0000";
layers = (
{
layerId = "7EBE3D46-E53E-419E-A3EC-596DA2EA1E0D";
name = Regular;
paths = (
{
closed = 1;
nodes = (
"266 252 OFFCURVE",
"479 238 OFFCURVE",
"479 370 CURVE",
"479 494 OFFCURVE",
"392 527 OFFCURVE",
"285 527 CURVE",
"181 527 OFFCURVE",
"148 508 OFFCURVE",
"87 487 CURVE",
"113 363 LINE",
"152 387 OFFCURVE",
"201 393 OFFCURVE",
"267 393 CURVE",
"332 393 OFFCURVE",
"357 381 OFFCURVE",
"357 361 CURVE",
"357 333 OFFCURVE",
"297 306 OFFCURVE",
"162 305 CURVE",
"162 236 LINE"
);
}
);
width = 539;
}
);
},
{
glyphname = _D_cyr;
lastChange = "2017-02-21 06:29:50 +0000";
layers = (
{
layerId = "7EBE3D46-E53E-419E-A3EC-596DA2EA1E0D";
name = Regular;
paths = (
{
closed = 1;
nodes = (
"492.178 -20 LINE",
"550 -20 LINE",
"550 -154 LINE",
"662.093 -154 LINE",
"660.907 102.064 LINE",
"484.713 100.927 LINE"
);
}
);
width = 600;
}
);
},
{
glyphname = _k_cyr;
lastChange = "2017-02-21 06:29:50 +0000";
layers = (
{
layerId = "7EBE3D46-E53E-419E-A3EC-596DA2EA1E0D";
name = Regular;
paths = (
{
closed = 1;
nodes = (
"105.016 207.125 LINE",
"251.235 205.983 LINE",
"279.16 246.194 LINE",
"496.835 518 LINE",
"345.015 518 LINE",
"191.988 314.964 LINE",
"132.107 313.895 LINE"
);
}
);
width = 600;
}
);
},
{
glyphname = _d_curl;
lastChange = "2017-02-21 06:29:50 +0000";
layers = (
{
layerId = "7EBE3D46-E53E-419E-A3EC-596DA2EA1E0D";
name = Regular;
paths = (
{
closed = 1;
nodes = (
"261 530.675 LINE",
"163.678 536.899 OFFCURVE",
"128.798 452.794 OFFCURVE",
"84.7582 363.066 CURVE",
"126.866 275.947 LINE",
"185.414 392.928 OFFCURVE",
"191.529 399.986 OFFCURVE",
"261 398.913 CURVE"
);
}
);
width = 494;
}
);
},
{
glyphname = _Z;
lastChange = "2021-07-05 08:37:41 +0000";
layers = (
{
components = (
{
name = ball;
transform = "{1, 0, 0, 1, 257, 205}";
}
);
layerId = "7EBE3D46-E53E-419E-A3EC-596DA2EA1E0D";
name = Regular;
paths = (
{
closed = 1;
nodes = (
"237 81 LINE",
"629 648 LINE",
"599 720 LINE",
"538 720 LINE",
"232 251 LINE",
"212 111 LINE"
);
}
);
width = 661;
}
);
},
{
glyphname = _c;
lastChange = "2021-06-30 13:55:41 +0000";
layers = (
{
layerId = "7EBE3D46-E53E-419E-A3EC-596DA2EA1E0D";
name = Regular;
paths = (
{
closed = 1;
nodes = (
"320 558 OFFCURVE",
"370 543 OFFCURVE",
"404 523 CURVE",
"429 652 LINE",
"382 673 OFFCURVE",
"328.771 686.506 OFFCURVE",
"264.777 684.868 CURVE",
"266 555 LINE"
);
}
);
width = 506;
}
);
},
{
glyphname = _quotes;
lastChange = "2017-03-05 11:25:39 +0000";
layers = (
{
components = (
{
name = _dot;
transform = "{1, 0, 0, 1, 23, -608}";
}
);
layerId = "7EBE3D46-E53E-419E-A3EC-596DA2EA1E0D";
name = Regular;
paths = (
{
closed = 1;
nodes = (
"126 -28 OFFCURVE",
"133 -54 OFFCURVE",
"103.246 -93.3728 CURVE",
"158.078 -110.127 LINE",
"161 -111 LINE",
"163.704 -111 OFFCURVE",
"252 -12 OFFCURVE",
"237 84 CURVE",
"96 -6 LINE"
);
}
);
width = 600;
}
);
},
{
glyphname = _yQ;
lastChange = "2017-02-21 06:29:50 +0000";
layers = (
{
layerId = "7EBE3D46-E53E-419E-A3EC-596DA2EA1E0D";
name = Regular;
paths = (
{
closed = 1;
nodes = (
"219.364 8 LINE",
"201.594 -41.2071 LINE",
"180.945 -97.7344 OFFCURVE",
"145.599 -103.466 OFFCURVE",
"101.375 -82.6271 CURVE",
"114.674 -218.575 LINE",
"197.223 -234.556 OFFCURVE",
"258.018 -190.503 OFFCURVE",
"292.349 -100.1 CURVE",
"332.358 8 LINE"
);
}
);
width = 511;
}
);
},
{
glyphname = _m_cyr;
lastChange = "2017-02-21 06:29:50 +0000";
layers = (
{
layerId = "7EBE3D46-E53E-419E-A3EC-596DA2EA1E0D";
name = Regular;
paths = (
{
closed = 1;
nodes = (
"159.751 520 LINE",
"10 28.4033 LINE",
"10 -19 LINE",
"123.882 -19 LINE",
"199.882 282 LINE",
"225.883 282 LINE",
"194.631 520 LINE"
);
}
);
width = 682;
}
);
},
{
glyphname = _m_cyr_2;
lastChange = "2021-07-05 12:09:02 +0000";
layers = (
{
components = (
{
name = ball;
transform = "{1, 0, 0, 1, 50, -267}";
},
{
name = ball;
transform = "{1, 0, 0, 1, -160, 17}";
}
);
layerId = "7EBE3D46-E53E-419E-A3EC-596DA2EA1E0D";
name = Regular;
paths = (
{
closed = 1;
nodes = (
"139 420 LINE",
"352 181 LINE",
"426 218 LINE",
"405 293 LINE",
"214 516 LINE",
"139 498 LINE"
);
}
);
width = 682;
}
);
},
{
glyphname = _ya_cyr;
lastChange = "2021-07-05 12:11:26 +0000";
layers = (
{
components = (
{
name = _u_cyr;
transform = "{1, 0, 0, -1, 0, 862}";
}
);
layerId = "7EBE3D46-E53E-419E-A3EC-596DA2EA1E0D";
name = Regular;
paths = (
{
closed = 1;
nodes = (
"70 332 OFFCURVE",
"156 291 OFFCURVE",
"274 291 CURVE",
"313 291 OFFCURVE",
"351 291 OFFCURVE",
"385 292 CURVE",
"380 377 LINE",
"338 376 OFFCURVE",
"319 376 OFFCURVE",
"273 378 CURVE",
"228 380 OFFCURVE",
"182 397 OFFCURVE",
"182 454 CURVE",
"182 543 OFFCURVE",
"70 595 OFFCURVE",
"70 454 CURVE"
);
}
);
width = 499;
}
);
},
{
glyphname = _u_cyr;
lastChange = "2021-07-05 12:12:59 +0000";
layers = (
{
layerId = "7EBE3D46-E53E-419E-A3EC-596DA2EA1E0D";
name = Regular;
paths = (
{
closed = 1;
nodes = (
"70 292.444 OFFCURVE",
"155.906 211 OFFCURVE",
"274 211 CURVE",
"385 212 LINE",
"380 337 LINE",
"338 336 OFFCURVE",
"319.366 335.792 OFFCURVE",
"273.476 337.977 CURVE",
"228.131 339.994 OFFCURVE",
"182 357.293 OFFCURVE",
"182 414 CURVE",
"182 502.571 OFFCURVE",
"70 554.861 OFFCURVE",
"70 414 CURVE"
);
}
);
width = 499;
}
);
},
{
glyphname = _curve_cursive;
lastChange = "2021-06-30 13:55:23 +0000";
layers = (
{
layerId = "7EBE3D46-E53E-419E-A3EC-596DA2EA1E0D";
name = Regular;
paths = (
{
closed = 1;
nodes = (
"50 235 LINE",
"50 86 OFFCURVE",
"150 -9 OFFCURVE",
"266 -9 CURVE",
"328 -8 OFFCURVE",
"381 11 OFFCURVE",
"435 49 CURVE",
"404 166 LINE",
"361 133 OFFCURVE",
"315 121 OFFCURVE",
"276 121 CURVE",
"220 121 OFFCURVE",
"164 178 OFFCURVE",
"164 254 CURVE",
"164 257 LINE",
"164 365 OFFCURVE",
"50 340.88 OFFCURVE",
"50 257 CURVE"
);
}
);
width = 537;
}
);
},
{
glyphname = _ending_cursive;
lastChange = "2017-02-21 06:29:50 +0000";
layers = (
{
layerId = "7EBE3D46-E53E-419E-A3EC-596DA2EA1E0D";
name = Regular;
paths = (
{
closed = 1;
nodes = (
"269.778 -25.7804 LINE",
"346.663 -29.0518 OFFCURVE",
"399.94 4.51693 OFFCURVE",
"443.289 55.5579 CURVE",
"383.162 161.114 LINE",
"350.024 122.47 OFFCURVE",
"313.435 100.467 OFFCURVE",
"271.226 104.466 CURVE"
);
}
);
width = 537;
}
);
},
{
glyphname = _z;
lastChange = "2021-06-30 14:16:30 +0000";
layers = (
{
layerId = "7EBE3D46-E53E-419E-A3EC-596DA2EA1E0D";
name = Regular;
paths = (
{
closed = 1;
nodes = (
"407 499 LINE",
"348 499 LINE",
"167 210 LINE",
"150 70 LINE",
"195 70 LINE",
"449 427 LINE"
);
}
);
width = 481;
}
);
},
{
glyphname = _g_two_storey;
lastChange = "2017-02-21 06:29:50 +0000";
layers = (
{
layerId = "7EBE3D46-E53E-419E-A3EC-596DA2EA1E0D";
name = Regular;
paths = (
{
closed = 1;
nodes = (
"280.998 412.556 LINE",
"262.548 523 LINE",
"263.032 523 OFFCURVE",
"263.516 523 OFFCURVE",
"264 523 CURVE",
"122.177 523 OFFCURVE",
"52.2011 434.966 OFFCURVE",
"50.0022 329.417 CURVE",
"50 298.682 OFFCURVE",
"163 299.884 OFFCURVE",
"163 330 CURVE",
"163 362.566 OFFCURVE",
"190.505 393 OFFCURVE",
"265 393 CURVE",
"267 393 OFFCURVE",
"269 393 OFFCURVE",
"271 393 CURVE"
);
}
);
width = 538;
}
);
},
{
glyphname = _g_loop;
lastChange = "2017-02-21 06:29:50 +0000";
layers = (
{
layerId = "7EBE3D46-E53E-419E-A3EC-596DA2EA1E0D";
name = Regular;
paths = (
{
closed = 1;
nodes = (
"211.003 -74.5063 LINE",
"229.503 -176 LINE",
"229.002 -176 OFFCURVE",
"228.501 -176 OFFCURVE",
"228 -176 CURVE",
"361.303 -176 OFFCURVE",
"419.704 -115.228 OFFCURVE",
"421.997 -15.4596 CURVE",
"422 15.2171 OFFCURVE",
"309 15.2171 OFFCURVE",
"309 -15 CURVE",
"309 -37.8083 OFFCURVE",
"291.79 -55 OFFCURVE",
"227 -55 CURVE",
"225 -55 OFFCURVE",
"223 -55 OFFCURVE",
"221 -55 CURVE"
);
}
);
width = 538;
}
);
},
{
glyphname = _N;
lastChange = "2021-07-05 09:12:35 +0000";
layers = (
{
layerId = "7EBE3D46-E53E-419E-A3EC-596DA2EA1E0D";
name = Regular;
paths = (
{
closed = 1;
nodes = (
"485 221 LINE",
"139 693 LINE",
"61 668 LINE",
"60 474 LINE",
"152 472 LINE",
"469 79 LINE"
);
}
);
width = 618;
}
);
},
{
glyphname = _C_lowe;
lastChange = "2019-01-09 12:56:58 +0000";
layers = (
{
layerId = "7EBE3D46-E53E-419E-A3EC-596DA2EA1E0D";
name = Regular;
paths = (
{
closed = 1;
nodes = (
"30 298 CURVE",
"30 55 OFFCURVE",
"188 -25 OFFCURVE",
"306 -26 CURVE",
"388 -25 OFFCURVE",
"462 5 OFFCURVE",
"514 53 CURVE",
"454 160 LINE",
"413 124 OFFCURVE",
"364 104 OFFCURVE",
"306 104 CURVE",
"237 104 OFFCURVE",
"144 142 OFFCURVE",
"144 307 CURVE",
"144 466 OFFCURVE",
"30 458 OFFCURVE"
);
}
);
width = 492;
}
);
},
{
glyphname = _A;
lastChange = "2017-03-03 07:34:33 +0000";
layers = (
{
layerId = "7EBE3D46-E53E-419E-A3EC-596DA2EA1E0D";
name = Regular;
paths = (
{
closed = 1;
nodes = (
"306 729 LINE",
"284 729 LINE",
"11 0 LINE",
"134 0 LINE",
"296 454 LINE",
"446 0 LINE",
"570 0 LINE"
);
}
);
width = 590;
}
);
},
{
glyphname = _P;
lastChange = "2021-07-05 08:49:42 +0000";
layers = (
{
layerId = "7EBE3D46-E53E-419E-A3EC-596DA2EA1E0D";
name = Regular;
paths = (
{
closed = 1;
nodes = (
"490 619.142 OFFCURVE",
"390 710 OFFCURVE",
"251 712 CURVE",
"176 713 OFFCURVE",
"100 713 OFFCURVE",
"60 713 CURVE",
"60 572.875 LINE",
"87.2697 590.12 OFFCURVE",
"178 589 OFFCURVE",
"242 587 CURVE",
"326 587 OFFCURVE",
"366 548 OFFCURVE",
"366 481 CURVE",
"365 404 OFFCURVE",
"333.49 362 OFFCURVE",
"242 362 CURVE",
"177.766 359.706 OFFCURVE",
"87.2697 371.88 OFFCURVE",
"60 389.125 CURVE",
"60 275 LINE",
"100 268 OFFCURVE",
"176 259 OFFCURVE",
"251 260 CURVE",
"390 262 OFFCURVE",
"490 342.858 OFFCURVE",
"490 478 CURVE",
"490 479 OFFCURVE",
"490 480 OFFCURVE",
"490 481 CURVE",
"490 484 LINE"
);
}
);
width = 513;
}
);
},
{
glyphname = _x_;
lastChange = "2017-02-27 19:27:01 +0000";
layers = (
{
layerId = "7EBE3D46-E53E-419E-A3EC-596DA2EA1E0D";
name = Regular;
paths = (
{
closed = 1;
nodes = (
"284 179 LINE",
"471 498 LINE",
"327 498 LINE",
"240 319 LINE",
"240 179 LINE"
);
}
);
width = 483;
}
);
},
{
glyphname = ball;
lastChange = "2021-06-30 14:13:40 +0000";
layers = (
{
layerId = "7EBE3D46-E53E-419E-A3EC-596DA2EA1E0D";
name = Regular;
paths = (
{
closed = 1;
nodes = (
"364 430 OFFCURVE",
"383 449 OFFCURVE",
"383 472 CURVE SMOOTH",
"383 496 OFFCURVE",
"364 515 OFFCURVE",
"341 515 CURVE",
"317 515 OFFCURVE",
"298 496 OFFCURVE",
"298 472 CURVE SMOOTH",
"298 449 OFFCURVE",
"317 430 OFFCURVE",
"341 430 CURVE"
);
}
);
width = 682;
}
);
},
{
glyphname = "S-curve";
lastChange = "2021-07-05 08:08:29 +0000";
layers = (
{
layerId = "7EBE3D46-E53E-419E-A3EC-596DA2EA1E0D";
name = Regular;
paths = (
{
closed = 1;
nodes = (
"330 584 OFFCURVE",
"384 570 OFFCURVE",
"428 550 CURVE",
"453 679 LINE",
"396 700 OFFCURVE",
"339 713 OFFCURVE",
"275 711 CURVE",
"276 581 LINE"
);
}
);
width = 540;
}
);
},
{
glyphname = "five-glyph";
lastChange = "2021-07-05 09:48:31 +0000";
layers = (
{
layerId = "7EBE3D46-E53E-419E-A3EC-596DA2EA1E0D";
name = Regular;
paths = (
{
closed = 1;
nodes = (
"457 361 OFFCURVE",
"343 375 OFFCURVE",
"343 267 CURVE",
"343 264 LINE",
"343 178 OFFCURVE",
"307 121 OFFCURVE",
"221 121 CURVE",
"172 121 OFFCURVE",
"116 133 OFFCURVE",
"73 166 CURVE",
"42 49 LINE",
"96 11 OFFCURVE",
"159 -8 OFFCURVE",
"221 -9 CURVE",
"367 -9 OFFCURVE",
"457 106 OFFCURVE",
"457 255 CURVE",
"457 277 LINE"
);
}
